<?xml version="1.0" encoding="utf-8" standalone="no"?>
<!DOCTYPE svg PUBLIC "-//W3C//DTD SVG 1.1//EN"
  "http://www.w3.org/Graphics/SVG/1.1/DTD/svg11.dtd">
<svg xmlns:xlink="http://www.w3.org/1999/xlink" width="721.343934pt" height="326.465625pt" viewBox="0 0 721.343934 326.465625" xmlns="http://www.w3.org/2000/svg" version="1.1">
 <metadata>
  <rdf:RDF xmlns:dc="http://purl.org/dc/elements/1.1/" xmlns:cc="http://creativecommons.org/ns#" xmlns:rdf="http://www.w3.org/1999/02/22-rdf-syntax-ns#">
   <cc:Work>
    <dc:type rdf:resource="http://purl.org/dc/dcmitype/StillImage"/>
    <dc:date>2025-04-11T18:23:44.349920</dc:date>
    <dc:format>image/svg+xml</dc:format>
    <dc:creator>
     <cc:Agent>
      <dc:title>Matplotlib v3.10.0, https://matplotlib.org/</dc:title>
     </cc:Agent>
    </dc:creator>
   </cc:Work>
  </rdf:RDF>
 </metadata>
 <defs>
  <style type="text/css">*{stroke-linejoin: round; stroke-linecap: butt}</style>
 </defs>
 <g id="figure_1">
  <g id="patch_1">
   <path d="M 0 326.465625 
L 721.343934 326.465625 
L 721.343934 0 
L 0 0 
z
" style="fill: #ffffff"/>
  </g>
  <g id="axes_1">
   <g id="patch_2">
    <path d="M 48.982812 302.5875 
L 606.982813 302.5875 
L 606.982813 25.3875 
L 48.982812 25.3875 
z
" style="fill: #ffffff"/>
   </g>
   <g id="matplotlib.axis_1">
    <g id="xtick_1">
     <g id="line2d_1">
      <defs>
       <path id="m35b8196571" d="M 0 0 
L 0 3.5 
" style="stroke: #000000; stroke-width: 0.8"/>
      </defs>
      <g>
       <use xlink:href="#m35b8196571" x="48.982812" y="302.5875" style="stroke: #000000; stroke-width: 0.8"/>
      </g>
     </g>
     <g id="text_1">
      <!-- 2018 -->
      <g transform="translate(36.257812 317.185938) scale(0.1 -0.1)">
       <defs>
        <path id="DejaVuSans-32" d="M 1228 531 
L 3431 531 
L 3431 0 
L 469 0 
L 469 531 
Q 828 903 1448 1529 
Q 2069 2156 2228 2338 
Q 2531 2678 2651 2914 
Q 2772 3150 2772 3378 
Q 2772 3750 2511 3984 
Q 2250 4219 1831 4219 
Q 1534 4219 1204 4116 
Q 875 4013 500 3803 
L 500 4441 
Q 881 4594 1212 4672 
Q 1544 4750 1819 4750 
Q 2544 4750 2975 4387 
Q 3406 4025 3406 3419 
Q 3406 3131 3298 2873 
Q 3191 2616 2906 2266 
Q 2828 2175 2409 1742 
Q 1991 1309 1228 531 
z
" transform="scale(0.015625)"/>
        <path id="DejaVuSans-30" d="M 2034 4250 
Q 1547 4250 1301 3770 
Q 1056 3291 1056 2328 
Q 1056 1369 1301 889 
Q 1547 409 2034 409 
Q 2525 409 2770 889 
Q 3016 1369 3016 2328 
Q 3016 3291 2770 3770 
Q 2525 4250 2034 4250 
z
M 2034 4750 
Q 2819 4750 3233 4129 
Q 3647 3509 3647 2328 
Q 3647 1150 3233 529 
Q 2819 -91 2034 -91 
Q 1250 -91 836 529 
Q 422 1150 422 2328 
Q 422 3509 836 4129 
Q 1250 4750 2034 4750 
z
" transform="scale(0.015625)"/>
        <path id="DejaVuSans-31" d="M 794 531 
L 1825 531 
L 1825 4091 
L 703 3866 
L 703 4441 
L 1819 4666 
L 2450 4666 
L 2450 531 
L 3481 531 
L 3481 0 
L 794 0 
L 794 531 
z
" transform="scale(0.015625)"/>
        <path id="DejaVuSans-38" d="M 2034 2216 
Q 1584 2216 1326 1975 
Q 1069 1734 1069 1313 
Q 1069 891 1326 650 
Q 1584 409 2034 409 
Q 2484 409 2743 651 
Q 3003 894 3003 1313 
Q 3003 1734 2745 1975 
Q 2488 2216 2034 2216 
z
M 1403 2484 
Q 997 2584 770 2862 
Q 544 3141 544 3541 
Q 544 4100 942 4425 
Q 1341 4750 2034 4750 
Q 2731 4750 3128 4425 
Q 3525 4100 3525 3541 
Q 3525 3141 3298 2862 
Q 3072 2584 2669 2484 
Q 3125 2378 3379 2068 
Q 3634 1759 3634 1313 
Q 3634 634 3220 271 
Q 2806 -91 2034 -91 
Q 1263 -91 848 271 
Q 434 634 434 1313 
Q 434 1759 690 2068 
Q 947 2378 1403 2484 
z
M 1172 3481 
Q 1172 3119 1398 2916 
Q 1625 2713 2034 2713 
Q 2441 2713 2670 2916 
Q 2900 3119 2900 3481 
Q 2900 3844 2670 4047 
Q 2441 4250 2034 4250 
Q 1625 4250 1398 4047 
Q 1172 3844 1172 3481 
z
" transform="scale(0.015625)"/>
       </defs>
       <use xlink:href="#DejaVuSans-32"/>
       <use xlink:href="#DejaVuSans-30" transform="translate(63.623047 0)"/>
       <use xlink:href="#DejaVuSans-31" transform="translate(127.246094 0)"/>
       <use xlink:href="#DejaVuSans-38" transform="translate(190.869141 0)"/>
      </g>
     </g>
    </g>
    <g id="xtick_2">
     <g id="line2d_2">
      <g>
       <use xlink:href="#m35b8196571" x="123.089094" y="302.5875" style="stroke: #000000; stroke-width: 0.8"/>
      </g>
     </g>
     <g id="text_2">
      <!-- 2019 -->
      <g transform="translate(110.364094 317.185938) scale(0.1 -0.1)">
       <defs>
        <path id="DejaVuSans-39" d="M 703 97 
L 703 672 
Q 941 559 1184 500 
Q 1428 441 1663 441 
Q 2288 441 2617 861 
Q 2947 1281 2994 2138 
Q 2813 1869 2534 1725 
Q 2256 1581 1919 1581 
Q 1219 1581 811 2004 
Q 403 2428 403 3163 
Q 403 3881 828 4315 
Q 1253 4750 1959 4750 
Q 2769 4750 3195 4129 
Q 3622 3509 3622 2328 
Q 3622 1225 3098 567 
Q 2575 -91 1691 -91 
Q 1453 -91 1209 -44 
Q 966 3 703 97 
z
M 1959 2075 
Q 2384 2075 2632 2365 
Q 2881 2656 2881 3163 
Q 2881 3666 2632 3958 
Q 2384 4250 1959 4250 
Q 1534 4250 1286 3958 
Q 1038 3666 1038 3163 
Q 1038 2656 1286 2365 
Q 1534 2075 1959 2075 
z
" transform="scale(0.015625)"/>
       </defs>
       <use xlink:href="#DejaVuSans-32"/>
       <use xlink:href="#DejaVuSans-30" transform="translate(63.623047 0)"/>
       <use xlink:href="#DejaVuSans-31" transform="translate(127.246094 0)"/>
       <use xlink:href="#DejaVuSans-39" transform="translate(190.869141 0)"/>
      </g>
     </g>
    </g>
    <g id="xtick_3">
     <g id="line2d_3">
      <g>
       <use xlink:href="#m35b8196571" x="197.195376" y="302.5875" style="stroke: #000000; stroke-width: 0.8"/>
      </g>
     </g>
     <g id="text_3">
      <!-- 2020 -->
      <g transform="translate(184.470376 317.185938) scale(0.1 -0.1)">
       <use xlink:href="#DejaVuSans-32"/>
       <use xlink:href="#DejaVuSans-30" transform="translate(63.623047 0)"/>
       <use xlink:href="#DejaVuSans-32" transform="translate(127.246094 0)"/>
       <use xlink:href="#DejaVuSans-30" transform="translate(190.869141 0)"/>
      </g>
     </g>
    </g>
    <g id="xtick_4">
     <g id="line2d_4">
      <g>
       <use xlink:href="#m35b8196571" x="271.504689" y="302.5875" style="stroke: #000000; stroke-width: 0.8"/>
      </g>
     </g>
     <g id="text_4">
      <!-- 2021 -->
      <g transform="translate(258.779689 317.185938) scale(0.1 -0.1)">
       <use xlink:href="#DejaVuSans-32"/>
       <use xlink:href="#DejaVuSans-30" transform="translate(63.623047 0)"/>
       <use xlink:href="#DejaVuSans-32" transform="translate(127.246094 0)"/>
       <use xlink:href="#DejaVuSans-31" transform="translate(190.869141 0)"/>
      </g>
     </g>
    </g>
    <g id="xtick_5">
     <g id="line2d_5">
      <g>
       <use xlink:href="#m35b8196571" x="345.610971" y="302.5875" style="stroke: #000000; stroke-width: 0.8"/>
      </g>
     </g>
     <g id="text_5">
      <!-- 2022 -->
      <g transform="translate(332.885971 317.185938) scale(0.1 -0.1)">
       <use xlink:href="#DejaVuSans-32"/>
       <use xlink:href="#DejaVuSans-30" transform="translate(63.623047 0)"/>
       <use xlink:href="#DejaVuSans-32" transform="translate(127.246094 0)"/>
       <use xlink:href="#DejaVuSans-32" transform="translate(190.869141 0)"/>
      </g>
     </g>
    </g>
    <g id="xtick_6">
     <g id="line2d_6">
      <g>
       <use xlink:href="#m35b8196571" x="419.717253" y="302.5875" style="stroke: #000000; stroke-width: 0.8"/>
      </g>
     </g>
     <g id="text_6">
      <!-- 2023 -->
      <g transform="translate(406.992253 317.185938) scale(0.1 -0.1)">
       <defs>
        <path id="DejaVuSans-33" d="M 2597 2516 
Q 3050 2419 3304 2112 
Q 3559 1806 3559 1356 
Q 3559 666 3084 287 
Q 2609 -91 1734 -91 
Q 1441 -91 1130 -33 
Q 819 25 488 141 
L 488 750 
Q 750 597 1062 519 
Q 1375 441 1716 441 
Q 2309 441 2620 675 
Q 2931 909 2931 1356 
Q 2931 1769 2642 2001 
Q 2353 2234 1838 2234 
L 1294 2234 
L 1294 2753 
L 1863 2753 
Q 2328 2753 2575 2939 
Q 2822 3125 2822 3475 
Q 2822 3834 2567 4026 
Q 2313 4219 1838 4219 
Q 1578 4219 1281 4162 
Q 984 4106 628 3988 
L 628 4550 
Q 988 4650 1302 4700 
Q 1616 4750 1894 4750 
Q 2613 4750 3031 4423 
Q 3450 4097 3450 3541 
Q 3450 3153 3228 2886 
Q 3006 2619 2597 2516 
z
" transform="scale(0.015625)"/>
       </defs>
       <use xlink:href="#DejaVuSans-32"/>
       <use xlink:href="#DejaVuSans-30" transform="translate(63.623047 0)"/>
       <use xlink:href="#DejaVuSans-32" transform="translate(127.246094 0)"/>
       <use xlink:href="#DejaVuSans-33" transform="translate(190.869141 0)"/>
      </g>
     </g>
    </g>
    <g id="xtick_7">
     <g id="line2d_7">
      <g>
       <use xlink:href="#m35b8196571" x="493.823535" y="302.5875" style="stroke: #000000; stroke-width: 0.8"/>
      </g>
     </g>
     <g id="text_7">
      <!-- 2024 -->
      <g transform="translate(481.098535 317.185938) scale(0.1 -0.1)">
       <defs>
        <path id="DejaVuSans-34" d="M 2419 4116 
L 825 1625 
L 2419 1625 
L 2419 4116 
z
M 2253 4666 
L 3047 4666 
L 3047 1625 
L 3713 1625 
L 3713 1100 
L 3047 1100 
L 3047 0 
L 2419 0 
L 2419 1100 
L 313 1100 
L 313 1709 
L 2253 4666 
z
" transform="scale(0.015625)"/>
       </defs>
       <use xlink:href="#DejaVuSans-32"/>
       <use xlink:href="#DejaVuSans-30" transform="translate(63.623047 0)"/>
       <use xlink:href="#DejaVuSans-32" transform="translate(127.246094 0)"/>
       <use xlink:href="#DejaVuSans-34" transform="translate(190.869141 0)"/>
      </g>
     </g>
    </g>
    <g id="xtick_8">
     <g id="line2d_8">
      <g>
       <use xlink:href="#m35b8196571" x="568.132848" y="302.5875" style="stroke: #000000; stroke-width: 0.8"/>
      </g>
     </g>
     <g id="text_8">
      <!-- 2025 -->
      <g transform="translate(555.407848 317.185938) scale(0.1 -0.1)">
       <defs>
        <path id="DejaVuSans-35" d="M 691 4666 
L 3169 4666 
L 3169 4134 
L 1269 4134 
L 1269 2991 
Q 1406 3038 1543 3061 
Q 1681 3084 1819 3084 
Q 2600 3084 3056 2656 
Q 3513 2228 3513 1497 
Q 3513 744 3044 326 
Q 2575 -91 1722 -91 
Q 1428 -91 1123 -41 
Q 819 9 494 109 
L 494 744 
Q 775 591 1075 516 
Q 1375 441 1709 441 
Q 2250 441 2565 725 
Q 2881 1009 2881 1497 
Q 2881 1984 2565 2268 
Q 2250 2553 1709 2553 
Q 1456 2553 1204 2497 
Q 953 2441 691 2322 
L 691 4666 
z
" transform="scale(0.015625)"/>
       </defs>
       <use xlink:href="#DejaVuSans-32"/>
       <use xlink:href="#DejaVuSans-30" transform="translate(63.623047 0)"/>
       <use xlink:href="#DejaVuSans-32" transform="translate(127.246094 0)"/>
       <use xlink:href="#DejaVuSans-35" transform="translate(190.869141 0)"/>
      </g>
     </g>
    </g>
   </g>
   <g id="matplotlib.axis_2">
    <g id="ytick_1">
     <g id="line2d_9">
      <defs>
       <path id="m62c8699b6d" d="M 0 0 
L -3.5 0 
" style="stroke: #000000; stroke-width: 0.8"/>
      </defs>
      <g>
       <use xlink:href="#m62c8699b6d" x="48.982812" y="302.5875" style="stroke: #000000; stroke-width: 0.8"/>
      </g>
     </g>
     <g id="text_9">
      <!-- −20 -->
      <g transform="translate(20.878125 306.386719) scale(0.1 -0.1)">
       <defs>
        <path id="DejaVuSans-2212" d="M 678 2272 
L 4684 2272 
L 4684 1741 
L 678 1741 
L 678 2272 
z
" transform="scale(0.015625)"/>
       </defs>
       <use xlink:href="#DejaVuSans-2212"/>
       <use xlink:href="#DejaVuSans-32" transform="translate(83.789062 0)"/>
       <use xlink:href="#DejaVuSans-30" transform="translate(147.412109 0)"/>
      </g>
     </g>
    </g>
    <g id="ytick_2">
     <g id="line2d_10">
      <g>
       <use xlink:href="#m62c8699b6d" x="48.982812" y="262.9875" style="stroke: #000000; stroke-width: 0.8"/>
      </g>
     </g>
     <g id="text_10">
      <!-- −10 -->
      <g transform="translate(20.878125 266.786719) scale(0.1 -0.1)">
       <use xlink:href="#DejaVuSans-2212"/>
       <use xlink:href="#DejaVuSans-31" transform="translate(83.789062 0)"/>
       <use xlink:href="#DejaVuSans-30" transform="translate(147.412109 0)"/>
      </g>
     </g>
    </g>
    <g id="ytick_3">
     <g id="line2d_11">
      <g>
       <use xlink:href="#m62c8699b6d" x="48.982812" y="223.3875" style="stroke: #000000; stroke-width: 0.8"/>
      </g>
     </g>
     <g id="text_11">
      <!-- 0 -->
      <g transform="translate(35.620312 227.186719) scale(0.1 -0.1)">
       <use xlink:href="#DejaVuSans-30"/>
      </g>
     </g>
    </g>
    <g id="ytick_4">
     <g id="line2d_12">
      <g>
       <use xlink:href="#m62c8699b6d" x="48.982812" y="183.7875" style="stroke: #000000; stroke-width: 0.8"/>
      </g>
     </g>
     <g id="text_12">
      <!-- 10 -->
      <g transform="translate(29.257812 187.586719) scale(0.1 -0.1)">
       <use xlink:href="#DejaVuSans-31"/>
       <use xlink:href="#DejaVuSans-30" transform="translate(63.623047 0)"/>
      </g>
     </g>
    </g>
    <g id="ytick_5">
     <g id="line2d_13">
      <g>
       <use xlink:href="#m62c8699b6d" x="48.982812" y="144.1875" style="stroke: #000000; stroke-width: 0.8"/>
      </g>
     </g>
     <g id="text_13">
      <!-- 20 -->
      <g transform="translate(29.257812 147.986719) scale(0.1 -0.1)">
       <use xlink:href="#DejaVuSans-32"/>
       <use xlink:href="#DejaVuSans-30" transform="translate(63.623047 0)"/>
      </g>
     </g>
    </g>
    <g id="ytick_6">
     <g id="line2d_14">
      <g>
       <use xlink:href="#m62c8699b6d" x="48.982812" y="104.5875" style="stroke: #000000; stroke-width: 0.8"/>
      </g>
     </g>
     <g id="text_14">
      <!-- 30 -->
      <g transform="translate(29.257812 108.386719) scale(0.1 -0.1)">
       <use xlink:href="#DejaVuSans-33"/>
       <use xlink:href="#DejaVuSans-30" transform="translate(63.623047 0)"/>
      </g>
     </g>
    </g>
    <g id="ytick_7">
     <g id="line2d_15">
      <g>
       <use xlink:href="#m62c8699b6d" x="48.982812" y="64.9875" style="stroke: #000000; stroke-width: 0.8"/>
      </g>
     </g>
     <g id="text_15">
      <!-- 40 -->
      <g transform="translate(29.257812 68.786719) scale(0.1 -0.1)">
       <use xlink:href="#DejaVuSans-34"/>
       <use xlink:href="#DejaVuSans-30" transform="translate(63.623047 0)"/>
      </g>
     </g>
    </g>
    <g id="ytick_8">
     <g id="line2d_16">
      <g>
       <use xlink:href="#m62c8699b6d" x="48.982812" y="25.3875" style="stroke: #000000; stroke-width: 0.8"/>
      </g>
     </g>
     <g id="text_16">
      <!-- 50 -->
      <g transform="translate(29.257812 29.186719) scale(0.1 -0.1)">
       <use xlink:href="#DejaVuSans-35"/>
       <use xlink:href="#DejaVuSans-30" transform="translate(63.623047 0)"/>
      </g>
     </g>
    </g>
    <g id="text_17">
     <!-- Percentual (%) -->
     <g transform="translate(14.798437 200.658594) rotate(-90) scale(0.1 -0.1)">
      <defs>
       <path id="DejaVuSans-50" d="M 1259 4147 
L 1259 2394 
L 2053 2394 
Q 2494 2394 2734 2622 
Q 2975 2850 2975 3272 
Q 2975 3691 2734 3919 
Q 2494 4147 2053 4147 
L 1259 4147 
z
M 628 4666 
L 2053 4666 
Q 2838 4666 3239 4311 
Q 3641 3956 3641 3272 
Q 3641 2581 3239 2228 
Q 2838 1875 2053 1875 
L 1259 1875 
L 1259 0 
L 628 0 
L 628 4666 
z
" transform="scale(0.015625)"/>
       <path id="DejaVuSans-65" d="M 3597 1894 
L 3597 1613 
L 953 1613 
Q 991 1019 1311 708 
Q 1631 397 2203 397 
Q 2534 397 2845 478 
Q 3156 559 3463 722 
L 3463 178 
Q 3153 47 2828 -22 
Q 2503 -91 2169 -91 
Q 1331 -91 842 396 
Q 353 884 353 1716 
Q 353 2575 817 3079 
Q 1281 3584 2069 3584 
Q 2775 3584 3186 3129 
Q 3597 2675 3597 1894 
z
M 3022 2063 
Q 3016 2534 2758 2815 
Q 2500 3097 2075 3097 
Q 1594 3097 1305 2825 
Q 1016 2553 972 2059 
L 3022 2063 
z
" transform="scale(0.015625)"/>
       <path id="DejaVuSans-72" d="M 2631 2963 
Q 2534 3019 2420 3045 
Q 2306 3072 2169 3072 
Q 1681 3072 1420 2755 
Q 1159 2438 1159 1844 
L 1159 0 
L 581 0 
L 581 3500 
L 1159 3500 
L 1159 2956 
Q 1341 3275 1631 3429 
Q 1922 3584 2338 3584 
Q 2397 3584 2469 3576 
Q 2541 3569 2628 3553 
L 2631 2963 
z
" transform="scale(0.015625)"/>
       <path id="DejaVuSans-63" d="M 3122 3366 
L 3122 2828 
Q 2878 2963 2633 3030 
Q 2388 3097 2138 3097 
Q 1578 3097 1268 2742 
Q 959 2388 959 1747 
Q 959 1106 1268 751 
Q 1578 397 2138 397 
Q 2388 397 2633 464 
Q 2878 531 3122 666 
L 3122 134 
Q 2881 22 2623 -34 
Q 2366 -91 2075 -91 
Q 1284 -91 818 406 
Q 353 903 353 1747 
Q 353 2603 823 3093 
Q 1294 3584 2113 3584 
Q 2378 3584 2631 3529 
Q 2884 3475 3122 3366 
z
" transform="scale(0.015625)"/>
       <path id="DejaVuSans-6e" d="M 3513 2113 
L 3513 0 
L 2938 0 
L 2938 2094 
Q 2938 2591 2744 2837 
Q 2550 3084 2163 3084 
Q 1697 3084 1428 2787 
Q 1159 2491 1159 1978 
L 1159 0 
L 581 0 
L 581 3500 
L 1159 3500 
L 1159 2956 
Q 1366 3272 1645 3428 
Q 1925 3584 2291 3584 
Q 2894 3584 3203 3211 
Q 3513 2838 3513 2113 
z
" transform="scale(0.015625)"/>
       <path id="DejaVuSans-74" d="M 1172 4494 
L 1172 3500 
L 2356 3500 
L 2356 3053 
L 1172 3053 
L 1172 1153 
Q 1172 725 1289 603 
Q 1406 481 1766 481 
L 2356 481 
L 2356 0 
L 1766 0 
Q 1100 0 847 248 
Q 594 497 594 1153 
L 594 3053 
L 172 3053 
L 172 3500 
L 594 3500 
L 594 4494 
L 1172 4494 
z
" transform="scale(0.015625)"/>
       <path id="DejaVuSans-75" d="M 544 1381 
L 544 3500 
L 1119 3500 
L 1119 1403 
Q 1119 906 1312 657 
Q 1506 409 1894 409 
Q 2359 409 2629 706 
Q 2900 1003 2900 1516 
L 2900 3500 
L 3475 3500 
L 3475 0 
L 2900 0 
L 2900 538 
Q 2691 219 2414 64 
Q 2138 -91 1772 -91 
Q 1169 -91 856 284 
Q 544 659 544 1381 
z
M 1991 3584 
L 1991 3584 
z
" transform="scale(0.015625)"/>
       <path id="DejaVuSans-61" d="M 2194 1759 
Q 1497 1759 1228 1600 
Q 959 1441 959 1056 
Q 959 750 1161 570 
Q 1363 391 1709 391 
Q 2188 391 2477 730 
Q 2766 1069 2766 1631 
L 2766 1759 
L 2194 1759 
z
M 3341 1997 
L 3341 0 
L 2766 0 
L 2766 531 
Q 2569 213 2275 61 
Q 1981 -91 1556 -91 
Q 1019 -91 701 211 
Q 384 513 384 1019 
Q 384 1609 779 1909 
Q 1175 2209 1959 2209 
L 2766 2209 
L 2766 2266 
Q 2766 2663 2505 2880 
Q 2244 3097 1772 3097 
Q 1472 3097 1187 3025 
Q 903 2953 641 2809 
L 641 3341 
Q 956 3463 1253 3523 
Q 1550 3584 1831 3584 
Q 2591 3584 2966 3190 
Q 3341 2797 3341 1997 
z
" transform="scale(0.015625)"/>
       <path id="DejaVuSans-6c" d="M 603 4863 
L 1178 4863 
L 1178 0 
L 603 0 
L 603 4863 
z
" transform="scale(0.015625)"/>
       <path id="DejaVuSans-20" transform="scale(0.015625)"/>
       <path id="DejaVuSans-28" d="M 1984 4856 
Q 1566 4138 1362 3434 
Q 1159 2731 1159 2009 
Q 1159 1288 1364 580 
Q 1569 -128 1984 -844 
L 1484 -844 
Q 1016 -109 783 600 
Q 550 1309 550 2009 
Q 550 2706 781 3412 
Q 1013 4119 1484 4856 
L 1984 4856 
z
" transform="scale(0.015625)"/>
       <path id="DejaVuSans-25" d="M 4653 2053 
Q 4381 2053 4226 1822 
Q 4072 1591 4072 1178 
Q 4072 772 4226 539 
Q 4381 306 4653 306 
Q 4919 306 5073 539 
Q 5228 772 5228 1178 
Q 5228 1588 5073 1820 
Q 4919 2053 4653 2053 
z
M 4653 2450 
Q 5147 2450 5437 2106 
Q 5728 1763 5728 1178 
Q 5728 594 5436 251 
Q 5144 -91 4653 -91 
Q 4153 -91 3862 251 
Q 3572 594 3572 1178 
Q 3572 1766 3864 2108 
Q 4156 2450 4653 2450 
z
M 1428 4353 
Q 1159 4353 1004 4120 
Q 850 3888 850 3481 
Q 850 3069 1003 2837 
Q 1156 2606 1428 2606 
Q 1700 2606 1854 2837 
Q 2009 3069 2009 3481 
Q 2009 3884 1853 4118 
Q 1697 4353 1428 4353 
z
M 4250 4750 
L 4750 4750 
L 1831 -91 
L 1331 -91 
L 4250 4750 
z
M 1428 4750 
Q 1922 4750 2215 4408 
Q 2509 4066 2509 3481 
Q 2509 2891 2217 2550 
Q 1925 2209 1428 2209 
Q 931 2209 642 2551 
Q 353 2894 353 3481 
Q 353 4063 643 4406 
Q 934 4750 1428 4750 
z
" transform="scale(0.015625)"/>
       <path id="DejaVuSans-29" d="M 513 4856 
L 1013 4856 
Q 1481 4119 1714 3412 
Q 1947 2706 1947 2009 
Q 1947 1309 1714 600 
Q 1481 -109 1013 -844 
L 513 -844 
Q 928 -128 1133 580 
Q 1338 1288 1338 2009 
Q 1338 2731 1133 3434 
Q 928 4138 513 4856 
z
" transform="scale(0.015625)"/>
      </defs>
      <use xlink:href="#DejaVuSans-50"/>
      <use xlink:href="#DejaVuSans-65" transform="translate(56.677734 0)"/>
      <use xlink:href="#DejaVuSans-72" transform="translate(118.201172 0)"/>
      <use xlink:href="#DejaVuSans-63" transform="translate(157.064453 0)"/>
      <use xlink:href="#DejaVuSans-65" transform="translate(212.044922 0)"/>
      <use xlink:href="#DejaVuSans-6e" transform="translate(273.568359 0)"/>
      <use xlink:href="#DejaVuSans-74" transform="translate(336.947266 0)"/>
      <use xlink:href="#DejaVuSans-75" transform="translate(376.15625 0)"/>
      <use xlink:href="#DejaVuSans-61" transform="translate(439.535156 0)"/>
      <use xlink:href="#DejaVuSans-6c" transform="translate(500.814453 0)"/>
      <use xlink:href="#DejaVuSans-20" transform="translate(528.597656 0)"/>
      <use xlink:href="#DejaVuSans-28" transform="translate(560.384766 0)"/>
      <use xlink:href="#DejaVuSans-25" transform="translate(599.398438 0)"/>
      <use xlink:href="#DejaVuSans-29" transform="translate(694.417969 0)"/>
     </g>
    </g>
   </g>
   <g id="line2d_17">
    <path d="M 42.688854 211.715994 
L 48.982812 212.08151 
L 55.276771 212.122106 
L 60.961636 212.772106 
L 67.255594 212.447268 
L 73.346522 212.082154 
L 79.64048 205.999314 
L 85.731407 205.628155 
L 92.025365 206.784484 
L 98.319323 205.466264 
L 104.410251 205.342607 
L 110.704209 207.365762 
L 116.795136 208.555391 
L 123.089094 208.432498 
L 129.383053 207.981889 
L 135.067918 205.269054 
L 141.361876 203.822821 
L 147.452804 204.940375 
L 153.746762 210.056501 
L 159.837689 210.627679 
L 166.131647 209.809423 
L 172.425605 211.929055 
L 178.516533 213.348771 
L 184.810491 210.41914 
L 190.901418 206.335582 
L 197.195376 206.788489 
L 203.489335 207.527988 
L 209.377231 210.307784 
L 215.671189 213.887282 
L 221.762116 215.952649 
L 228.056075 214.944162 
L 234.147002 214.257912 
L 240.44096 213.731823 
L 246.734918 210.97226 
L 252.825846 207.871405 
L 259.119804 206.315579 
L 265.210731 205.498828 
L 271.504689 205.333619 
L 277.798647 202.814189 
L 283.483513 199.234165 
L 289.777471 196.621113 
L 295.868398 191.486127 
L 302.162357 190.33379 
L 308.253284 187.768702 
L 314.547242 185.056014 
L 320.8412 182.811853 
L 326.932128 181.123725 
L 333.226086 180.863087 
L 339.317013 183.545723 
L 345.610971 182.284933 
L 351.904929 181.63487 
L 357.589795 178.642209 
L 363.883753 175.346835 
L 369.97468 176.932222 
L 376.268639 176.316051 
L 382.359566 183.513329 
L 388.653524 188.82834 
L 394.947482 194.999859 
L 401.038409 197.766237 
L 407.332368 200.021566 
L 413.423295 200.479526 
L 419.717253 200.521192 
L 426.011211 201.226144 
L 431.696077 204.97075 
L 437.990035 206.816065 
L 444.080962 207.801605 
L 450.37492 210.867954 
L 456.465848 207.577422 
L 462.759806 205.138964 
L 469.053764 202.853971 
L 475.144691 204.303287 
L 481.43865 204.840693 
L 487.529577 205.087889 
L 493.823535 205.541216 
L 500.117493 205.582256 
L 506.00539 207.842139 
L 512.299348 208.782955 
L 518.390275 207.840731 
L 524.684233 206.64629 
L 530.775161 205.574449 
L 537.069119 206.606608 
L 543.363077 205.865529 
L 549.454004 204.545427 
L 555.747962 204.090375 
L 561.83889 204.255569 
L 568.132848 205.330397 
L 574.426806 203.359284 
L 580.111672 201.697829 
" clip-path="url(#p39010b8884)" style="fill: none; stroke: #173fe5; stroke-width: 2; stroke-linecap: square"/>
   </g>
   <g id="line2d_18">
    <defs>
     <path id="m931fe6b23c" d="M 0 3 
C 0.795609 3 1.55874 2.683901 2.12132 2.12132 
C 2.683901 1.55874 3 0.795609 3 0 
C 3 -0.795609 2.683901 -1.55874 2.12132 -2.12132 
C 1.55874 -2.683901 0.795609 -3 0 -3 
C -0.795609 -3 -1.55874 -2.683901 -2.12132 -2.12132 
C -2.683901 -1.55874 -3 -0.795609 -3 0 
C -3 0.795609 -2.683901 1.55874 -2.12132 2.12132 
C -1.55874 2.683901 -0.795609 3 0 3 
z
" style="stroke: #173fe5"/>
    </defs>
    <g clip-path="url(#p39010b8884)">
     <use xlink:href="#m931fe6b23c" x="221.762116" y="215.952649" style="fill: #173fe5; stroke: #173fe5"/>
    </g>
   </g>
   <g id="line2d_19">
    <g clip-path="url(#p39010b8884)">
     <use xlink:href="#m931fe6b23c" x="363.883753" y="175.346835" style="fill: #173fe5; stroke: #173fe5"/>
    </g>
   </g>
   <g id="line2d_20">
    <g clip-path="url(#p39010b8884)">
     <use xlink:href="#m931fe6b23c" x="580.111672" y="201.697829" style="fill: #173fe5; stroke: #173fe5"/>
    </g>
   </g>
   <g id="line2d_21">
    <path d="M 42.688854 225.496553 
L 48.982812 225.026889 
L 55.276771 225.066294 
L 60.961636 222.582319 
L 67.255594 215.881968 
L 73.346522 206.473492 
L 79.64048 195.914732 
L 85.731407 190.668242 
L 92.025365 188.098497 
L 98.319323 183.591147 
L 104.410251 180.590154 
L 110.704209 184.99908 
L 116.795136 193.481043 
L 123.089094 196.651248 
L 129.383053 193.229479 
L 135.067918 190.604102 
L 141.361876 189.111866 
L 147.452804 193.058959 
L 153.746762 197.536937 
L 159.837689 197.998618 
L 166.131647 203.731515 
L 172.425605 209.995834 
L 178.516533 210.847972 
L 184.810491 207.604618 
L 190.901418 194.408583 
L 197.195376 192.411382 
L 203.489335 196.305296 
L 209.377231 196.388859 
L 215.671189 196.89183 
L 221.762116 197.606855 
L 228.056075 194.426763 
L 234.147002 186.680965 
L 240.44096 171.826145 
L 246.734918 152.355279 
L 252.825846 140.526394 
L 259.119804 126.299015 
L 265.210731 131.756846 
L 271.504689 121.565521 
L 277.798647 108.766376 
L 283.483513 100.192138 
L 289.777471 96.535107 
L 295.868398 76.617913 
L 302.162357 81.748465 
L 308.253284 89.374177 
L 314.547242 100.104445 
L 320.8412 124.889088 
L 326.932128 137.295858 
L 333.226086 152.512926 
L 339.317013 152.929117 
L 345.610971 156.385038 
L 351.904929 159.546081 
L 357.589795 164.90658 
L 363.883753 165.3543 
L 369.97468 180.968506 
L 376.268639 181.012087 
L 382.359566 183.491487 
L 388.653524 189.380803 
L 394.947482 190.72241 
L 401.038409 197.58003 
L 407.332368 200.026024 
L 413.423295 201.772151 
L 419.717253 208.375575 
L 426.011211 216.004099 
L 431.696077 222.704688 
L 437.990035 231.936238 
L 444.080962 241.032785 
L 450.37492 250.5114 
L 456.465848 253.934759 
L 462.759806 251.873797 
L 469.053764 246.976088 
L 475.144691 241.448018 
L 481.43865 237.077237 
L 487.529577 235.973504 
L 493.823535 236.509159 
L 500.117493 238.271457 
L 506.00539 240.25227 
L 512.299348 235.429348 
L 518.390275 224.750805 
L 524.684233 213.724961 
L 530.775161 208.290521 
L 537.069119 206.520326 
L 543.363077 205.491963 
L 549.454004 201.291232 
L 555.747962 198.34016 
L 561.83889 197.504251 
L 568.132848 196.661075 
L 574.426806 189.947085 
L 580.111672 189.386176 
" clip-path="url(#p39010b8884)" style="fill: none; stroke: #484d50; stroke-width: 2; stroke-linecap: square"/>
   </g>
   <g id="line2d_22">
    <defs>
     <path id="mda5f3009be" d="M 0 3 
C 0.795609 3 1.55874 2.683901 2.12132 2.12132 
C 2.683901 1.55874 3 0.795609 3 0 
C 3 -0.795609 2.683901 -1.55874 2.12132 -2.12132 
C 1.55874 -2.683901 0.795609 -3 0 -3 
C -0.795609 -3 -1.55874 -2.683901 -2.12132 -2.12132 
C -2.683901 -1.55874 -3 -0.795609 -3 0 
C -3 0.795609 -2.683901 1.55874 -2.12132 2.12132 
C -1.55874 2.683901 -0.795609 3 0 3 
z
" style="stroke: #484d50"/>
    </defs>
    <g clip-path="url(#p39010b8884)">
     <use xlink:href="#mda5f3009be" x="456.465848" y="253.934759" style="fill: #484d50; stroke: #484d50"/>
    </g>
   </g>
   <g id="line2d_23">
    <g clip-path="url(#p39010b8884)">
     <use xlink:href="#mda5f3009be" x="295.868398" y="76.617913" style="fill: #484d50; stroke: #484d50"/>
    </g>
   </g>
   <g id="line2d_24">
    <g clip-path="url(#p39010b8884)">
     <use xlink:href="#mda5f3009be" x="580.111672" y="189.386176" style="fill: #484d50; stroke: #484d50"/>
    </g>
   </g>
   <g id="patch_3">
    <path d="M 48.982812 302.5875 
L 48.982812 25.3875 
" style="fill: none; stroke: #000000; stroke-width: 0.8; stroke-linejoin: miter; stroke-linecap: square"/>
   </g>
   <g id="patch_4">
    <path d="M 48.982812 302.5875 
L 606.982813 302.5875 
" style="fill: none; stroke: #000000; stroke-width: 0.8; stroke-linejoin: miter; stroke-linecap: square"/>
   </g>
   <g id="text_18">
    <g id="patch_5">
     <path d="M 203.489335 238.752649 
L 291.334647 238.752649 
Q 294.334647 238.752649 294.334647 235.752649 
L 294.334647 225.752649 
Q 294.334647 222.752649 291.334647 222.752649 
L 203.489335 222.752649 
Q 200.489335 222.752649 200.489335 225.752649 
L 200.489335 235.752649 
Q 200.489335 238.752649 203.489335 238.752649 
z
" style="fill: #173fe5; opacity: 0.1; stroke: #173fe5; stroke-linejoin: miter"/>
    </g>
    <!-- 1.88% | Mai/2020 -->
    <g style="fill: #173fe5" transform="translate(203.489335 233.394836) scale(0.1 -0.1)">
     <defs>
      <path id="DejaVuSans-2e" d="M 684 794 
L 1344 794 
L 1344 0 
L 684 0 
L 684 794 
z
" transform="scale(0.015625)"/>
      <path id="DejaVuSans-7c" d="M 1344 4891 
L 1344 -1509 
L 813 -1509 
L 813 4891 
L 1344 4891 
z
" transform="scale(0.015625)"/>
      <path id="DejaVuSans-4d" d="M 628 4666 
L 1569 4666 
L 2759 1491 
L 3956 4666 
L 4897 4666 
L 4897 0 
L 4281 0 
L 4281 4097 
L 3078 897 
L 2444 897 
L 1241 4097 
L 1241 0 
L 628 0 
L 628 4666 
z
" transform="scale(0.015625)"/>
      <path id="DejaVuSans-69" d="M 603 3500 
L 1178 3500 
L 1178 0 
L 603 0 
L 603 3500 
z
M 603 4863 
L 1178 4863 
L 1178 4134 
L 603 4134 
L 603 4863 
z
" transform="scale(0.015625)"/>
      <path id="DejaVuSans-2f" d="M 1625 4666 
L 2156 4666 
L 531 -594 
L 0 -594 
L 1625 4666 
z
" transform="scale(0.015625)"/>
     </defs>
     <use xlink:href="#DejaVuSans-31"/>
     <use xlink:href="#DejaVuSans-2e" transform="translate(63.623047 0)"/>
     <use xlink:href="#DejaVuSans-38" transform="translate(95.410156 0)"/>
     <use xlink:href="#DejaVuSans-38" transform="translate(159.033203 0)"/>
     <use xlink:href="#DejaVuSans-25" transform="translate(222.65625 0)"/>
     <use xlink:href="#DejaVuSans-20" transform="translate(317.675781 0)"/>
     <use xlink:href="#DejaVuSans-7c" transform="translate(349.462891 0)"/>
     <use xlink:href="#DejaVuSans-20" transform="translate(383.154297 0)"/>
     <use xlink:href="#DejaVuSans-4d" transform="translate(414.941406 0)"/>
     <use xlink:href="#DejaVuSans-61" transform="translate(501.220703 0)"/>
     <use xlink:href="#DejaVuSans-69" transform="translate(562.5 0)"/>
     <use xlink:href="#DejaVuSans-2f" transform="translate(590.283203 0)"/>
     <use xlink:href="#DejaVuSans-32" transform="translate(623.974609 0)"/>
     <use xlink:href="#DejaVuSans-30" transform="translate(687.597656 0)"/>
     <use xlink:href="#DejaVuSans-32" transform="translate(751.220703 0)"/>
     <use xlink:href="#DejaVuSans-30" transform="translate(814.84375 0)"/>
    </g>
   </g>
   <g id="text_19">
    <g id="patch_6">
     <path d="M 372.004989 178.346835 
L 465.978427 178.346835 
Q 468.978427 178.346835 468.978427 175.346835 
L 468.978427 165.346835 
Q 468.978427 162.346835 465.978427 162.346835 
L 372.004989 162.346835 
Q 369.004989 162.346835 369.004989 165.346835 
L 369.004989 175.346835 
Q 369.004989 178.346835 372.004989 178.346835 
z
" style="fill: #173fe5; opacity: 0.1; stroke: #173fe5; stroke-linejoin: miter"/>
    </g>
    <!-- 12.13% | Abr/2022 -->
    <g style="fill: #173fe5" transform="translate(372.004989 172.989022) scale(0.1 -0.1)">
     <defs>
      <path id="DejaVuSans-41" d="M 2188 4044 
L 1331 1722 
L 3047 1722 
L 2188 4044 
z
M 1831 4666 
L 2547 4666 
L 4325 0 
L 3669 0 
L 3244 1197 
L 1141 1197 
L 716 0 
L 50 0 
L 1831 4666 
z
" transform="scale(0.015625)"/>
      <path id="DejaVuSans-62" d="M 3116 1747 
Q 3116 2381 2855 2742 
Q 2594 3103 2138 3103 
Q 1681 3103 1420 2742 
Q 1159 2381 1159 1747 
Q 1159 1113 1420 752 
Q 1681 391 2138 391 
Q 2594 391 2855 752 
Q 3116 1113 3116 1747 
z
M 1159 2969 
Q 1341 3281 1617 3432 
Q 1894 3584 2278 3584 
Q 2916 3584 3314 3078 
Q 3713 2572 3713 1747 
Q 3713 922 3314 415 
Q 2916 -91 2278 -91 
Q 1894 -91 1617 61 
Q 1341 213 1159 525 
L 1159 0 
L 581 0 
L 581 4863 
L 1159 4863 
L 1159 2969 
z
" transform="scale(0.015625)"/>
     </defs>
     <use xlink:href="#DejaVuSans-31"/>
     <use xlink:href="#DejaVuSans-32" transform="translate(63.623047 0)"/>
     <use xlink:href="#DejaVuSans-2e" transform="translate(127.246094 0)"/>
     <use xlink:href="#DejaVuSans-31" transform="translate(159.033203 0)"/>
     <use xlink:href="#DejaVuSans-33" transform="translate(222.65625 0)"/>
     <use xlink:href="#DejaVuSans-25" transform="translate(286.279297 0)"/>
     <use xlink:href="#DejaVuSans-20" transform="translate(381.298828 0)"/>
     <use xlink:href="#DejaVuSans-7c" transform="translate(413.085938 0)"/>
     <use xlink:href="#DejaVuSans-20" transform="translate(446.777344 0)"/>
     <use xlink:href="#DejaVuSans-41" transform="translate(478.564453 0)"/>
     <use xlink:href="#DejaVuSans-62" transform="translate(546.972656 0)"/>
     <use xlink:href="#DejaVuSans-72" transform="translate(610.449219 0)"/>
     <use xlink:href="#DejaVuSans-2f" transform="translate(651.5625 0)"/>
     <use xlink:href="#DejaVuSans-32" transform="translate(685.253906 0)"/>
     <use xlink:href="#DejaVuSans-30" transform="translate(748.876953 0)"/>
     <use xlink:href="#DejaVuSans-32" transform="translate(812.5 0)"/>
     <use xlink:href="#DejaVuSans-32" transform="translate(876.123047 0)"/>
    </g>
   </g>
   <g id="text_20">
    <g id="patch_7">
     <path d="M 535.444872 237.577829 
L 705.833622 237.577829 
Q 710.033622 237.577829 710.033622 233.377829 
L 710.033622 219.377829 
Q 710.033622 215.177829 705.833622 215.177829 
L 535.444872 215.177829 
Q 531.244872 215.177829 531.244872 219.377829 
L 531.244872 233.377829 
Q 531.244872 237.577829 535.444872 237.577829 
z
" style="fill: #173fe5; opacity: 0.1; stroke: #173fe5; stroke-linejoin: miter"/>
    </g>
    <!-- IPCA | 5.48% | Mar/2025 -->
    <g style="fill: #173fe5" transform="translate(535.444872 230.076892) scale(0.14 -0.14)">
     <defs>
      <path id="DejaVuSans-49" d="M 628 4666 
L 1259 4666 
L 1259 0 
L 628 0 
L 628 4666 
z
" transform="scale(0.015625)"/>
      <path id="DejaVuSans-43" d="M 4122 4306 
L 4122 3641 
Q 3803 3938 3442 4084 
Q 3081 4231 2675 4231 
Q 1875 4231 1450 3742 
Q 1025 3253 1025 2328 
Q 1025 1406 1450 917 
Q 1875 428 2675 428 
Q 3081 428 3442 575 
Q 3803 722 4122 1019 
L 4122 359 
Q 3791 134 3420 21 
Q 3050 -91 2638 -91 
Q 1578 -91 968 557 
Q 359 1206 359 2328 
Q 359 3453 968 4101 
Q 1578 4750 2638 4750 
Q 3056 4750 3426 4639 
Q 3797 4528 4122 4306 
z
" transform="scale(0.015625)"/>
     </defs>
     <use xlink:href="#DejaVuSans-49"/>
     <use xlink:href="#DejaVuSans-50" transform="translate(29.492188 0)"/>
     <use xlink:href="#DejaVuSans-43" transform="translate(89.794922 0)"/>
     <use xlink:href="#DejaVuSans-41" transform="translate(159.619141 0)"/>
     <use xlink:href="#DejaVuSans-20" transform="translate(228.027344 0)"/>
     <use xlink:href="#DejaVuSans-7c" transform="translate(259.814453 0)"/>
     <use xlink:href="#DejaVuSans-20" transform="translate(293.505859 0)"/>
     <use xlink:href="#DejaVuSans-35" transform="translate(325.292969 0)"/>
     <use xlink:href="#DejaVuSans-2e" transform="translate(388.916016 0)"/>
     <use xlink:href="#DejaVuSans-34" transform="translate(420.703125 0)"/>
     <use xlink:href="#DejaVuSans-38" transform="translate(484.326172 0)"/>
     <use xlink:href="#DejaVuSans-25" transform="translate(547.949219 0)"/>
     <use xlink:href="#DejaVuSans-20" transform="translate(642.96875 0)"/>
     <use xlink:href="#DejaVuSans-7c" transform="translate(674.755859 0)"/>
     <use xlink:href="#DejaVuSans-20" transform="translate(708.447266 0)"/>
     <use xlink:href="#DejaVuSans-4d" transform="translate(740.234375 0)"/>
     <use xlink:href="#DejaVuSans-61" transform="translate(826.513672 0)"/>
     <use xlink:href="#DejaVuSans-72" transform="translate(887.792969 0)"/>
     <use xlink:href="#DejaVuSans-2f" transform="translate(928.90625 0)"/>
     <use xlink:href="#DejaVuSans-32" transform="translate(962.597656 0)"/>
     <use xlink:href="#DejaVuSans-30" transform="translate(1026.220703 0)"/>
     <use xlink:href="#DejaVuSans-32" transform="translate(1089.84375 0)"/>
     <use xlink:href="#DejaVuSans-35" transform="translate(1153.466797 0)"/>
    </g>
   </g>
   <g id="text_21">
    <g id="patch_8">
     <path d="M 432.102139 276.734759 
L 518.086514 276.734759 
Q 521.086514 276.734759 521.086514 273.734759 
L 521.086514 263.734759 
Q 521.086514 260.734759 518.086514 260.734759 
L 432.102139 260.734759 
Q 429.102139 260.734759 429.102139 263.734759 
L 429.102139 273.734759 
Q 429.102139 276.734759 432.102139 276.734759 
z
" style="fill: #484d50; opacity: 0.1; stroke: #484d50; stroke-linejoin: miter"/>
    </g>
    <!-- -7.71% | Jul/2023 -->
    <g style="fill: #484d50" transform="translate(432.102139 271.376946) scale(0.1 -0.1)">
     <defs>
      <path id="DejaVuSans-2d" d="M 313 2009 
L 1997 2009 
L 1997 1497 
L 313 1497 
L 313 2009 
z
" transform="scale(0.015625)"/>
      <path id="DejaVuSans-37" d="M 525 4666 
L 3525 4666 
L 3525 4397 
L 1831 0 
L 1172 0 
L 2766 4134 
L 525 4134 
L 525 4666 
z
" transform="scale(0.015625)"/>
      <path id="DejaVuSans-4a" d="M 628 4666 
L 1259 4666 
L 1259 325 
Q 1259 -519 939 -900 
Q 619 -1281 -91 -1281 
L -331 -1281 
L -331 -750 
L -134 -750 
Q 284 -750 456 -515 
Q 628 -281 628 325 
L 628 4666 
z
" transform="scale(0.015625)"/>
     </defs>
     <use xlink:href="#DejaVuSans-2d"/>
     <use xlink:href="#DejaVuSans-37" transform="translate(36.083984 0)"/>
     <use xlink:href="#DejaVuSans-2e" transform="translate(99.707031 0)"/>
     <use xlink:href="#DejaVuSans-37" transform="translate(131.494141 0)"/>
     <use xlink:href="#DejaVuSans-31" transform="translate(195.117188 0)"/>
     <use xlink:href="#DejaVuSans-25" transform="translate(258.740234 0)"/>
     <use xlink:href="#DejaVuSans-20" transform="translate(353.759766 0)"/>
     <use xlink:href="#DejaVuSans-7c" transform="translate(385.546875 0)"/>
     <use xlink:href="#DejaVuSans-20" transform="translate(419.238281 0)"/>
     <use xlink:href="#DejaVuSans-4a" transform="translate(451.025391 0)"/>
     <use xlink:href="#DejaVuSans-75" transform="translate(480.517578 0)"/>
     <use xlink:href="#DejaVuSans-6c" transform="translate(543.896484 0)"/>
     <use xlink:href="#DejaVuSans-2f" transform="translate(571.679688 0)"/>
     <use xlink:href="#DejaVuSans-32" transform="translate(605.371094 0)"/>
     <use xlink:href="#DejaVuSans-30" transform="translate(668.994141 0)"/>
     <use xlink:href="#DejaVuSans-32" transform="translate(732.617188 0)"/>
     <use xlink:href="#DejaVuSans-33" transform="translate(796.240234 0)"/>
    </g>
   </g>
   <g id="text_22">
    <g id="patch_9">
     <path d="M 277.595617 67.737913 
L 371.803429 67.737913 
Q 374.803429 67.737913 374.803429 64.737913 
L 374.803429 54.737913 
Q 374.803429 51.737913 371.803429 51.737913 
L 277.595617 51.737913 
Q 274.595617 51.737913 274.595617 54.737913 
L 274.595617 64.737913 
Q 274.595617 67.737913 277.595617 67.737913 
z
" style="fill: #484d50; opacity: 0.1; stroke: #484d50; stroke-linejoin: miter"/>
    </g>
    <!-- 37.06% | Mai/2021 -->
    <g style="fill: #484d50" transform="translate(277.595617 62.380101) scale(0.1 -0.1)">
     <defs>
      <path id="DejaVuSans-36" d="M 2113 2584 
Q 1688 2584 1439 2293 
Q 1191 2003 1191 1497 
Q 1191 994 1439 701 
Q 1688 409 2113 409 
Q 2538 409 2786 701 
Q 3034 994 3034 1497 
Q 3034 2003 2786 2293 
Q 2538 2584 2113 2584 
z
M 3366 4563 
L 3366 3988 
Q 3128 4100 2886 4159 
Q 2644 4219 2406 4219 
Q 1781 4219 1451 3797 
Q 1122 3375 1075 2522 
Q 1259 2794 1537 2939 
Q 1816 3084 2150 3084 
Q 2853 3084 3261 2657 
Q 3669 2231 3669 1497 
Q 3669 778 3244 343 
Q 2819 -91 2113 -91 
Q 1303 -91 875 529 
Q 447 1150 447 2328 
Q 447 3434 972 4092 
Q 1497 4750 2381 4750 
Q 2619 4750 2861 4703 
Q 3103 4656 3366 4563 
z
" transform="scale(0.015625)"/>
     </defs>
     <use xlink:href="#DejaVuSans-33"/>
     <use xlink:href="#DejaVuSans-37" transform="translate(63.623047 0)"/>
     <use xlink:href="#DejaVuSans-2e" transform="translate(127.246094 0)"/>
     <use xlink:href="#DejaVuSans-30" transform="translate(159.033203 0)"/>
     <use xlink:href="#DejaVuSans-36" transform="translate(222.65625 0)"/>
     <use xlink:href="#DejaVuSans-25" transform="translate(286.279297 0)"/>
     <use xlink:href="#DejaVuSans-20" transform="translate(381.298828 0)"/>
     <use xlink:href="#DejaVuSans-7c" transform="translate(413.085938 0)"/>
     <use xlink:href="#DejaVuSans-20" transform="translate(446.777344 0)"/>
     <use xlink:href="#DejaVuSans-4d" transform="translate(478.564453 0)"/>
     <use xlink:href="#DejaVuSans-61" transform="translate(564.84375 0)"/>
     <use xlink:href="#DejaVuSans-69" transform="translate(626.123047 0)"/>
     <use xlink:href="#DejaVuSans-2f" transform="translate(653.90625 0)"/>
     <use xlink:href="#DejaVuSans-32" transform="translate(687.597656 0)"/>
     <use xlink:href="#DejaVuSans-30" transform="translate(751.220703 0)"/>
     <use xlink:href="#DejaVuSans-32" transform="translate(814.84375 0)"/>
     <use xlink:href="#DejaVuSans-31" transform="translate(878.466797 0)"/>
    </g>
   </g>
   <g id="text_23">
    <g id="patch_10">
     <path d="M 535.444872 181.706176 
L 714.143934 181.706176 
Q 718.343934 181.706176 718.343934 177.506176 
L 718.343934 163.506176 
Q 718.343934 159.306176 714.143934 159.306176 
L 535.444872 159.306176 
Q 531.244872 159.306176 531.244872 163.506176 
L 531.244872 177.506176 
Q 531.244872 181.706176 535.444872 181.706176 
z
" style="fill: #484d50; opacity: 0.1; stroke: #484d50; stroke-linejoin: miter"/>
    </g>
    <!-- IGP-M | 8.59% | Mar/2025 -->
    <g style="fill: #484d50" transform="translate(535.444872 174.205238) scale(0.14 -0.14)">
     <defs>
      <path id="DejaVuSans-47" d="M 3809 666 
L 3809 1919 
L 2778 1919 
L 2778 2438 
L 4434 2438 
L 4434 434 
Q 4069 175 3628 42 
Q 3188 -91 2688 -91 
Q 1594 -91 976 548 
Q 359 1188 359 2328 
Q 359 3472 976 4111 
Q 1594 4750 2688 4750 
Q 3144 4750 3555 4637 
Q 3966 4525 4313 4306 
L 4313 3634 
Q 3963 3931 3569 4081 
Q 3175 4231 2741 4231 
Q 1884 4231 1454 3753 
Q 1025 3275 1025 2328 
Q 1025 1384 1454 906 
Q 1884 428 2741 428 
Q 3075 428 3337 486 
Q 3600 544 3809 666 
z
" transform="scale(0.015625)"/>
     </defs>
     <use xlink:href="#DejaVuSans-49"/>
     <use xlink:href="#DejaVuSans-47" transform="translate(29.492188 0)"/>
     <use xlink:href="#DejaVuSans-50" transform="translate(106.982422 0)"/>
     <use xlink:href="#DejaVuSans-2d" transform="translate(165.035156 0)"/>
     <use xlink:href="#DejaVuSans-4d" transform="translate(201.119141 0)"/>
     <use xlink:href="#DejaVuSans-20" transform="translate(287.398438 0)"/>
     <use xlink:href="#DejaVuSans-7c" transform="translate(319.185547 0)"/>
     <use xlink:href="#DejaVuSans-20" transform="translate(352.876953 0)"/>
     <use xlink:href="#DejaVuSans-38" transform="translate(384.664062 0)"/>
     <use xlink:href="#DejaVuSans-2e" transform="translate(448.287109 0)"/>
     <use xlink:href="#DejaVuSans-35" transform="translate(480.074219 0)"/>
     <use xlink:href="#DejaVuSans-39" transform="translate(543.697266 0)"/>
     <use xlink:href="#DejaVuSans-25" transform="translate(607.320312 0)"/>
     <use xlink:href="#DejaVuSans-20" transform="translate(702.339844 0)"/>
     <use xlink:href="#DejaVuSans-7c" transform="translate(734.126953 0)"/>
     <use xlink:href="#DejaVuSans-20" transform="translate(767.818359 0)"/>
     <use xlink:href="#DejaVuSans-4d" transform="translate(799.605469 0)"/>
     <use xlink:href="#DejaVuSans-61" transform="translate(885.884766 0)"/>
     <use xlink:href="#DejaVuSans-72" transform="translate(947.164062 0)"/>
     <use xlink:href="#DejaVuSans-2f" transform="translate(988.277344 0)"/>
     <use xlink:href="#DejaVuSans-32" transform="translate(1021.96875 0)"/>
     <use xlink:href="#DejaVuSans-30" transform="translate(1085.591797 0)"/>
     <use xlink:href="#DejaVuSans-32" transform="translate(1149.214844 0)"/>
     <use xlink:href="#DejaVuSans-35" transform="translate(1212.837891 0)"/>
    </g>
   </g>
   <g id="text_24">
    <!-- Inflação Acumulada em 12 Meses (%) -->
    <g style="fill: #022873" transform="translate(177.111563 19.3875) scale(0.16 -0.16)">
     <defs>
      <path id="DejaVuSans-66" d="M 2375 4863 
L 2375 4384 
L 1825 4384 
Q 1516 4384 1395 4259 
Q 1275 4134 1275 3809 
L 1275 3500 
L 2222 3500 
L 2222 3053 
L 1275 3053 
L 1275 0 
L 697 0 
L 697 3053 
L 147 3053 
L 147 3500 
L 697 3500 
L 697 3744 
Q 697 4328 969 4595 
Q 1241 4863 1831 4863 
L 2375 4863 
z
" transform="scale(0.015625)"/>
      <path id="DejaVuSans-e7" d="M 3122 3366 
L 3122 2828 
Q 2878 2963 2633 3030 
Q 2388 3097 2138 3097 
Q 1578 3097 1268 2742 
Q 959 2388 959 1747 
Q 959 1106 1268 751 
Q 1578 397 2138 397 
Q 2388 397 2633 464 
Q 2878 531 3122 666 
L 3122 134 
Q 2881 22 2623 -34 
Q 2366 -91 2075 -91 
Q 1284 -91 818 406 
Q 353 903 353 1747 
Q 353 2603 823 3093 
Q 1294 3584 2113 3584 
Q 2378 3584 2631 3529 
Q 2884 3475 3122 3366 
z
M 2311 0 
Q 2482 -194 2566 -358 
Q 2651 -522 2651 -672 
Q 2651 -950 2463 -1092 
Q 2276 -1234 1907 -1234 
Q 1764 -1234 1628 -1215 
Q 1492 -1197 1357 -1159 
L 1357 -750 
Q 1464 -803 1579 -826 
Q 1695 -850 1842 -850 
Q 2026 -850 2120 -775 
Q 2214 -700 2214 -556 
Q 2214 -463 2146 -327 
Q 2079 -191 1939 0 
L 2311 0 
z
" transform="scale(0.015625)"/>
      <path id="DejaVuSans-e3" d="M 2194 1759 
Q 1497 1759 1228 1600 
Q 959 1441 959 1056 
Q 959 750 1161 570 
Q 1363 391 1709 391 
Q 2188 391 2477 730 
Q 2766 1069 2766 1631 
L 2766 1759 
L 2194 1759 
z
M 3341 1997 
L 3341 0 
L 2766 0 
L 2766 531 
Q 2569 213 2275 61 
Q 1981 -91 1556 -91 
Q 1019 -91 701 211 
Q 384 513 384 1019 
Q 384 1609 779 1909 
Q 1175 2209 1959 2209 
L 2766 2209 
L 2766 2266 
Q 2766 2663 2505 2880 
Q 2244 3097 1772 3097 
Q 1472 3097 1187 3025 
Q 903 2953 641 2809 
L 641 3341 
Q 956 3463 1253 3523 
Q 1550 3584 1831 3584 
Q 2591 3584 2966 3190 
Q 3341 2797 3341 1997 
z
M 1844 4281 
L 1665 4453 
Q 1597 4516 1545 4545 
Q 1494 4575 1453 4575 
Q 1334 4575 1278 4461 
Q 1222 4347 1215 4091 
L 825 4091 
Q 831 4513 990 4742 
Q 1150 4972 1434 4972 
Q 1553 4972 1653 4928 
Q 1753 4884 1869 4781 
L 2047 4609 
Q 2115 4547 2167 4517 
Q 2219 4488 2259 4488 
Q 2378 4488 2434 4602 
Q 2490 4716 2497 4972 
L 2887 4972 
Q 2881 4550 2721 4320 
Q 2562 4091 2278 4091 
Q 2159 4091 2059 4134 
Q 1959 4178 1844 4281 
z
" transform="scale(0.015625)"/>
      <path id="DejaVuSans-6f" d="M 1959 3097 
Q 1497 3097 1228 2736 
Q 959 2375 959 1747 
Q 959 1119 1226 758 
Q 1494 397 1959 397 
Q 2419 397 2687 759 
Q 2956 1122 2956 1747 
Q 2956 2369 2687 2733 
Q 2419 3097 1959 3097 
z
M 1959 3584 
Q 2709 3584 3137 3096 
Q 3566 2609 3566 1747 
Q 3566 888 3137 398 
Q 2709 -91 1959 -91 
Q 1206 -91 779 398 
Q 353 888 353 1747 
Q 353 2609 779 3096 
Q 1206 3584 1959 3584 
z
" transform="scale(0.015625)"/>
      <path id="DejaVuSans-6d" d="M 3328 2828 
Q 3544 3216 3844 3400 
Q 4144 3584 4550 3584 
Q 5097 3584 5394 3201 
Q 5691 2819 5691 2113 
L 5691 0 
L 5113 0 
L 5113 2094 
Q 5113 2597 4934 2840 
Q 4756 3084 4391 3084 
Q 3944 3084 3684 2787 
Q 3425 2491 3425 1978 
L 3425 0 
L 2847 0 
L 2847 2094 
Q 2847 2600 2669 2842 
Q 2491 3084 2119 3084 
Q 1678 3084 1418 2786 
Q 1159 2488 1159 1978 
L 1159 0 
L 581 0 
L 581 3500 
L 1159 3500 
L 1159 2956 
Q 1356 3278 1631 3431 
Q 1906 3584 2284 3584 
Q 2666 3584 2933 3390 
Q 3200 3197 3328 2828 
z
" transform="scale(0.015625)"/>
      <path id="DejaVuSans-64" d="M 2906 2969 
L 2906 4863 
L 3481 4863 
L 3481 0 
L 2906 0 
L 2906 525 
Q 2725 213 2448 61 
Q 2172 -91 1784 -91 
Q 1150 -91 751 415 
Q 353 922 353 1747 
Q 353 2572 751 3078 
Q 1150 3584 1784 3584 
Q 2172 3584 2448 3432 
Q 2725 3281 2906 2969 
z
M 947 1747 
Q 947 1113 1208 752 
Q 1469 391 1925 391 
Q 2381 391 2643 752 
Q 2906 1113 2906 1747 
Q 2906 2381 2643 2742 
Q 2381 3103 1925 3103 
Q 1469 3103 1208 2742 
Q 947 2381 947 1747 
z
" transform="scale(0.015625)"/>
      <path id="DejaVuSans-73" d="M 2834 3397 
L 2834 2853 
Q 2591 2978 2328 3040 
Q 2066 3103 1784 3103 
Q 1356 3103 1142 2972 
Q 928 2841 928 2578 
Q 928 2378 1081 2264 
Q 1234 2150 1697 2047 
L 1894 2003 
Q 2506 1872 2764 1633 
Q 3022 1394 3022 966 
Q 3022 478 2636 193 
Q 2250 -91 1575 -91 
Q 1294 -91 989 -36 
Q 684 19 347 128 
L 347 722 
Q 666 556 975 473 
Q 1284 391 1588 391 
Q 1994 391 2212 530 
Q 2431 669 2431 922 
Q 2431 1156 2273 1281 
Q 2116 1406 1581 1522 
L 1381 1569 
Q 847 1681 609 1914 
Q 372 2147 372 2553 
Q 372 3047 722 3315 
Q 1072 3584 1716 3584 
Q 2034 3584 2315 3537 
Q 2597 3491 2834 3397 
z
" transform="scale(0.015625)"/>
     </defs>
     <use xlink:href="#DejaVuSans-49"/>
     <use xlink:href="#DejaVuSans-6e" transform="translate(29.492188 0)"/>
     <use xlink:href="#DejaVuSans-66" transform="translate(92.871094 0)"/>
     <use xlink:href="#DejaVuSans-6c" transform="translate(128.076172 0)"/>
     <use xlink:href="#DejaVuSans-61" transform="translate(155.859375 0)"/>
     <use xlink:href="#DejaVuSans-e7" transform="translate(217.138672 0)"/>
     <use xlink:href="#DejaVuSans-e3" transform="translate(272.119141 0)"/>
     <use xlink:href="#DejaVuSans-6f" transform="translate(333.398438 0)"/>
     <use xlink:href="#DejaVuSans-20" transform="translate(394.580078 0)"/>
     <use xlink:href="#DejaVuSans-41" transform="translate(426.367188 0)"/>
     <use xlink:href="#DejaVuSans-63" transform="translate(493.025391 0)"/>
     <use xlink:href="#DejaVuSans-75" transform="translate(548.005859 0)"/>
     <use xlink:href="#DejaVuSans-6d" transform="translate(611.384766 0)"/>
     <use xlink:href="#DejaVuSans-75" transform="translate(708.796875 0)"/>
     <use xlink:href="#DejaVuSans-6c" transform="translate(772.175781 0)"/>
     <use xlink:href="#DejaVuSans-61" transform="translate(799.958984 0)"/>
     <use xlink:href="#DejaVuSans-64" transform="translate(861.238281 0)"/>
     <use xlink:href="#DejaVuSans-61" transform="translate(924.714844 0)"/>
     <use xlink:href="#DejaVuSans-20" transform="translate(985.994141 0)"/>
     <use xlink:href="#DejaVuSans-65" transform="translate(1017.78125 0)"/>
     <use xlink:href="#DejaVuSans-6d" transform="translate(1079.304688 0)"/>
     <use xlink:href="#DejaVuSans-20" transform="translate(1176.716797 0)"/>
     <use xlink:href="#DejaVuSans-31" transform="translate(1208.503906 0)"/>
     <use xlink:href="#DejaVuSans-32" transform="translate(1272.126953 0)"/>
     <use xlink:href="#DejaVuSans-20" transform="translate(1335.75 0)"/>
     <use xlink:href="#DejaVuSans-4d" transform="translate(1367.537109 0)"/>
     <use xlink:href="#DejaVuSans-65" transform="translate(1453.816406 0)"/>
     <use xlink:href="#DejaVuSans-73" transform="translate(1515.339844 0)"/>
     <use xlink:href="#DejaVuSans-65" transform="translate(1567.439453 0)"/>
     <use xlink:href="#DejaVuSans-73" transform="translate(1628.962891 0)"/>
     <use xlink:href="#DejaVuSans-20" transform="translate(1681.0625 0)"/>
     <use xlink:href="#DejaVuSans-28" transform="translate(1712.849609 0)"/>
     <use xlink:href="#DejaVuSans-25" transform="translate(1751.863281 0)"/>
     <use xlink:href="#DejaVuSans-29" transform="translate(1846.882812 0)"/>
    </g>
   </g>
  </g>
 </g>
 <defs>
  <clipPath id="p39010b8884">
   <rect x="48.982812" y="25.3875" width="558" height="277.2"/>
  </clipPath>
 </defs>
</svg>
