<?xml version="1.0" encoding="UTF-8"?>
<svg id="Layer_1" xmlns="http://www.w3.org/2000/svg" viewBox="0 0 1080 939.03">
  <defs>
    <style>
      .cls-1 {
        fill: #fff;
      }

      .cls-2 {
        fill: red;
      }

      .cls-3 {
        fill: #00cf00;
      }

      .cls-4 {
        fill: #ffcf00;
      }

      .cls-5 {
        fill: #183eff;
      }
    </style>
  </defs>
  <g>
    <path class="cls-1" d="M111.55,927.17c-2.43,0-4.61-.36-6.55-1.08-1.93-.72-3.54-1.68-4.82-2.89-1.28-1.21-2.34-2.66-3.19-4.36-.84-1.7-1.45-3.48-1.82-5.34-.37-1.86-.55-3.85-.55-5.95v-19.89h6.21v19.89c0,1.49.11,2.9.32,4.23.21,1.32.59,2.59,1.12,3.82.53,1.22,1.19,2.27,1.99,3.13.79.87,1.81,1.56,3.05,2.08,1.24.52,2.66.78,4.24.78s3.03-.27,4.28-.8,2.27-1.24,3.06-2.12c.79-.88,1.45-1.93,1.97-3.16.52-1.22.88-2.49,1.09-3.79.21-1.31.31-2.69.31-4.17v-19.89h6.26v19.89c0,2.76-.32,5.28-.97,7.6-.65,2.31-1.63,4.38-2.96,6.21-1.32,1.82-3.09,3.25-5.31,4.28-2.22,1.03-4.8,1.54-7.73,1.54"/>
    <polygon class="cls-1" points="153.99 899.16 153.99 926.9 147.81 926.9 147.81 887.66 152.89 887.66 175.12 916.03 175.12 887.71 181.36 887.71 181.36 926.9 175.93 926.9 153.99 899.16"/>
    <rect class="cls-1" x="201.24" y="887.66" width="6.18" height="39.24"/>
    <path class="cls-1" d="M238.66,887.66h5.85l15.25,39.25h-6.53l-4.13-10.66h-15.14l-4.1,10.66h-6.59l15.39-39.25ZM237.93,880.32c-.57,0-1.06.12-1.46.36-.4.24-.67.54-.84.89-.16.36-.27.64-.33.87-.06.23-.08.4-.08.53h-3.43c0-.27.06-.64.17-1.11.11-.47.31-1.01.61-1.63.3-.62.65-1.2,1.08-1.73.43-.53.99-.98,1.71-1.35.71-.37,1.49-.55,2.36-.55.92,0,1.79.2,2.62.61.83.41,1.62.81,2.37,1.22.76.4,1.5.61,2.24.61.51,0,.95-.09,1.34-.27.39-.18.68-.38.89-.62.21-.24.37-.5.5-.77.12-.28.2-.5.23-.66.03-.16.04-.29.04-.38h3.48c0,.23-.06.58-.17,1.03-.12.45-.34.99-.65,1.62-.31.63-.7,1.22-1.15,1.76-.45.54-1.06,1-1.82,1.39-.77.39-1.61.58-2.53.58s-1.86-.2-2.73-.59c-.86-.4-1.66-.79-2.39-1.19-.73-.4-1.42-.59-2.06-.59M247.89,911.65l-6.31-17.19-6.51,17.19h12.82Z"/>
    <path class="cls-1" d="M271.71,907.28c0-2.59.48-5.1,1.45-7.51.96-2.42,2.27-4.54,3.92-6.36,1.66-1.82,3.66-3.27,6.02-4.37,2.36-1.1,4.86-1.65,7.5-1.65s5.27.57,7.64,1.73c2.37,1.15,4.36,2.67,5.95,4.55,1.59,1.88,2.85,4.01,3.76,6.4.92,2.39,1.38,4.81,1.38,7.27,0,2.59-.48,5.09-1.45,7.5-.96,2.41-2.26,4.53-3.9,6.35-1.64,1.82-3.64,3.27-5.99,4.36-2.36,1.09-4.86,1.63-7.5,1.63-2.2,0-4.28-.37-6.26-1.09-1.98-.73-3.72-1.73-5.22-3.01-1.5-1.28-2.81-2.75-3.91-4.43-1.11-1.67-1.95-3.48-2.52-5.44-.58-1.95-.87-3.93-.87-5.92M290.55,921.59c1.91,0,3.66-.41,5.26-1.24,1.6-.83,2.91-1.92,3.94-3.28,1.03-1.36,1.82-2.88,2.39-4.57.57-1.69.85-3.43.85-5.21s-.31-3.64-.91-5.36c-.6-1.72-1.43-3.24-2.49-4.56-1.05-1.32-2.37-2.37-3.94-3.15-1.57-.78-3.28-1.18-5.11-1.18s-3.67.41-5.28,1.23c-1.61.82-2.94,1.9-3.98,3.25-1.04,1.35-1.85,2.87-2.43,4.56-.58,1.69-.87,3.42-.87,5.21,0,2.49.5,4.8,1.5,6.96.99,2.16,2.47,3.92,4.41,5.29,1.95,1.37,4.16,2.05,6.64,2.05"/>
    <polygon class="cls-1" points="378.35 921.42 378.35 926.9 351.44 926.9 351.44 887.66 377.86 887.66 377.86 893.14 357.62 893.14 357.62 904.29 375.13 904.29 375.13 909.44 357.62 909.44 357.62 921.42 378.35 921.42"/>
    <path class="cls-1" d="M420.42,926.9v-39.24h17.09c1.71,0,3.33.37,4.87,1.11,1.53.74,2.83,1.71,3.87,2.91,1.04,1.21,1.87,2.57,2.48,4.11.61,1.53.92,3.07.92,4.64,0,2.66-.7,5.07-2.1,7.22-1.4,2.15-3.25,3.6-5.56,4.33l9.23,14.93h-6.97l-8.52-13.66h-9.12v13.66h-6.18ZM426.61,907.77h10.85c1.71,0,3.12-.71,4.24-2.14,1.11-1.43,1.67-3.16,1.67-5.2s-.63-3.71-1.89-5.14c-1.26-1.43-2.71-2.15-4.37-2.15h-10.5v14.63Z"/>
    <polygon class="cls-1" points="494.91 921.42 494.91 926.9 468 926.9 468 887.66 494.42 887.66 494.42 893.14 474.18 893.14 474.18 904.29 491.69 904.29 491.69 909.44 474.18 909.44 474.18 921.42 494.91 921.42"/>
    <path class="cls-1" d="M528.1,887.44c3.44,0,6.46.78,9.05,2.33,2.6,1.56,4.56,3.63,5.87,6.22l-4.86,3.27c-.52-1.14-1.18-2.12-1.97-2.96-.79-.84-1.66-1.48-2.59-1.94-.94-.46-1.87-.8-2.82-1.01-.94-.22-1.91-.33-2.9-.33-1.58,0-3.05.28-4.43.83-1.36.55-2.53,1.28-3.51,2.2-.97.92-1.81,1.99-2.51,3.21-.7,1.22-1.22,2.51-1.55,3.86-.33,1.35-.5,2.72-.5,4.1,0,2.54.53,4.9,1.6,7.1,1.07,2.19,2.59,3.96,4.55,5.3,1.96,1.34,4.13,2.01,6.51,2.01,1.35,0,2.67-.21,3.95-.63,1.29-.42,2.53-1.14,3.73-2.13,1.19-1,2.12-2.23,2.76-3.69l5.16,2.91c-.77,1.87-2.03,3.52-3.78,4.94-1.75,1.42-3.66,2.47-5.75,3.16-2.09.68-4.19,1.02-6.29,1.02-2.66,0-5.18-.58-7.54-1.75-2.37-1.17-4.35-2.71-5.97-4.62-1.61-1.91-2.88-4.07-3.82-6.49-.94-2.42-1.4-4.87-1.4-7.36,0-1.91.27-3.8.81-5.68.54-1.88,1.35-3.65,2.44-5.31,1.09-1.66,2.38-3.14,3.87-4.42,1.49-1.28,3.27-2.29,5.32-3.04,2.05-.75,4.24-1.12,6.56-1.12"/>
    <path class="cls-1" d="M557.45,907.28c0-2.59.48-5.1,1.45-7.51.96-2.42,2.27-4.54,3.92-6.36,1.66-1.82,3.66-3.27,6.02-4.37,2.36-1.1,4.86-1.65,7.5-1.65s5.27.57,7.64,1.73c2.37,1.15,4.36,2.67,5.95,4.55,1.59,1.88,2.84,4.01,3.76,6.4.92,2.39,1.38,4.81,1.38,7.27,0,2.59-.48,5.09-1.45,7.5-.96,2.41-2.26,4.53-3.9,6.35-1.64,1.82-3.63,3.27-5.99,4.36-2.36,1.09-4.86,1.63-7.5,1.63-2.2,0-4.28-.37-6.26-1.09-1.98-.73-3.72-1.73-5.22-3.01-1.5-1.28-2.81-2.75-3.91-4.43-1.11-1.67-1.95-3.48-2.52-5.44-.58-1.95-.87-3.93-.87-5.92M576.29,921.59c1.91,0,3.66-.41,5.26-1.24,1.6-.83,2.92-1.92,3.94-3.28,1.03-1.36,1.82-2.88,2.39-4.57.57-1.69.85-3.43.85-5.21s-.31-3.64-.91-5.36c-.6-1.72-1.43-3.24-2.48-4.56-1.06-1.32-2.37-2.37-3.95-3.15-1.57-.78-3.28-1.18-5.11-1.18s-3.67.41-5.28,1.23c-1.61.82-2.94,1.9-3.98,3.25-1.04,1.35-1.85,2.87-2.43,4.56-.58,1.69-.87,3.42-.87,5.21,0,2.49.5,4.8,1.5,6.96.99,2.16,2.47,3.92,4.41,5.29,1.95,1.37,4.16,2.05,6.64,2.05"/>
    <polygon class="cls-1" points="618.73 899.16 618.73 926.9 612.55 926.9 612.55 887.66 617.62 887.66 639.86 916.03 639.86 887.71 646.1 887.71 646.1 926.9 640.67 926.9 618.73 899.16"/>
    <path class="cls-1" d="M689.19,896.89c-.85-.94-2.29-1.83-4.32-2.7-2.04-.87-4.13-1.3-6.29-1.3-2.56,0-4.47.47-5.74,1.42-1.27.95-1.9,2.28-1.9,4.01,0,.54.07,1.03.21,1.46.14.43.33.81.55,1.15.22.33.56.65,1.01.96.45.3.89.57,1.33.78.44.22,1.05.44,1.81.69.76.24,1.48.45,2.14.62.67.17,1.53.39,2.62.66,1.72.41,3.2.82,4.43,1.23,1.22.41,2.4.92,3.54,1.54,1.13.62,2.04,1.31,2.73,2.07.68.77,1.23,1.7,1.63,2.8.41,1.09.61,2.34.61,3.75,0,1.56-.25,2.98-.75,4.24-.5,1.26-1.17,2.32-2.03,3.18-.87.87-1.91,1.59-3.13,2.17-1.22.58-2.54,1.01-3.94,1.27-1.41.26-2.91.39-4.53.39-2.99,0-5.88-.46-8.67-1.36-2.79-.91-5.3-2.22-7.53-3.93l2.83-5.32c1.14,1.17,2.98,2.3,5.55,3.39,2.56,1.09,5.2,1.63,7.92,1.63,2.45,0,4.33-.43,5.65-1.3,1.32-.86,1.98-2.1,1.98-3.72,0-.65-.1-1.23-.3-1.75-.2-.52-.54-.99-1.02-1.42-.48-.42-.98-.78-1.49-1.09-.51-.31-1.25-.62-2.19-.94-.94-.33-1.81-.59-2.59-.81-.78-.22-1.84-.5-3.17-.84-2.07-.54-3.78-1.09-5.13-1.65-1.35-.55-2.54-1.24-3.57-2.05-1.04-.81-1.79-1.77-2.26-2.87-.47-1.11-.7-2.42-.7-3.93,0-1.89.37-3.59,1.09-5.11.73-1.52,1.73-2.77,3.01-3.76,1.28-.99,2.78-1.75,4.5-2.27,1.73-.52,3.61-.78,5.64-.78,4.83,0,9.24,1.48,13.25,4.43l-2.81,5.07Z"/>
    <polygon class="cls-1" points="739.59 893.14 726.56 893.14 726.56 926.9 720.3 926.9 720.3 893.14 707.21 893.14 707.21 887.66 739.59 887.66 739.59 893.14"/>
    <path class="cls-1" d="M755.88,926.9v-39.24h17.09c1.71,0,3.34.37,4.87,1.11,1.53.74,2.83,1.71,3.87,2.91,1.04,1.21,1.87,2.57,2.48,4.11.61,1.53.92,3.07.92,4.64,0,2.66-.7,5.07-2.1,7.22-1.41,2.15-3.25,3.6-5.56,4.33l9.23,14.93h-6.97l-8.53-13.66h-9.12v13.66h-6.18ZM762.07,907.77h10.85c1.71,0,3.12-.71,4.24-2.14,1.11-1.43,1.67-3.16,1.67-5.2s-.63-3.71-1.89-5.14c-1.26-1.43-2.71-2.15-4.37-2.15h-10.5v14.63Z"/>
    <path class="cls-1" d="M819.76,927.17c-2.43,0-4.61-.36-6.55-1.08-1.93-.72-3.54-1.68-4.82-2.89-1.28-1.21-2.34-2.66-3.19-4.36-.84-1.7-1.45-3.48-1.82-5.34-.37-1.86-.55-3.85-.55-5.95v-19.89h6.21v19.89c0,1.49.11,2.9.32,4.23.21,1.32.59,2.59,1.12,3.82.53,1.22,1.19,2.27,1.99,3.13.79.87,1.81,1.56,3.05,2.08,1.24.52,2.66.78,4.24.78s3.03-.27,4.28-.8,2.27-1.24,3.06-2.12c.79-.88,1.45-1.93,1.97-3.16.52-1.22.88-2.49,1.09-3.79.21-1.31.31-2.69.31-4.17v-19.89h6.26v19.89c0,2.76-.32,5.28-.97,7.6-.65,2.31-1.63,4.38-2.96,6.21-1.32,1.82-3.09,3.25-5.31,4.28-2.22,1.03-4.8,1.54-7.73,1.54"/>
    <path class="cls-1" d="M888.08,918.11c-1.01,2.41-2.74,4.4-5.21,5.98-2.47,1.58-5.16,2.57-8.07,2.98,1.89,1.58,2.84,3.36,2.84,5.31,0,1.58-.53,2.84-1.59,3.78-1.06.94-2.54,1.41-4.45,1.41-2.27,0-4.44-.53-6.5-1.59l1.54-3.27c1.4.77,2.71,1.16,3.91,1.16,1.04,0,1.86-.22,2.44-.66.58-.44.88-1.08.88-1.93,0-1.44-.99-2.81-2.97-4.11-2.5-.2-4.85-.92-7.03-2.16-2.19-1.24-4.03-2.8-5.52-4.67-1.49-1.87-2.67-3.97-3.52-6.29-.85-2.32-1.28-4.67-1.28-7.05,0-1.9.27-3.8.81-5.68.54-1.88,1.35-3.66,2.44-5.32,1.09-1.66,2.38-3.13,3.87-4.41,1.49-1.28,3.27-2.29,5.32-3.04,2.05-.75,4.24-1.12,6.56-1.12,3.43,0,6.45.78,9.05,2.33,2.6,1.56,4.55,3.63,5.87,6.22l-4.86,3.27c-.53-1.13-1.18-2.12-1.97-2.95-.79-.84-1.65-1.48-2.59-1.94-.94-.46-1.87-.8-2.82-1.02-.94-.21-1.91-.32-2.9-.32-1.58,0-3.06.27-4.43.82-1.37.55-2.54,1.28-3.51,2.2-.98.91-1.81,1.99-2.51,3.21-.7,1.22-1.22,2.51-1.55,3.86-.33,1.35-.5,2.71-.5,4.1,0,2.54.54,4.9,1.61,7.1,1.07,2.2,2.59,3.96,4.55,5.3,1.96,1.34,4.13,2.01,6.51,2.01,1.35,0,2.67-.21,3.95-.63,1.28-.42,2.53-1.14,3.72-2.13,1.2-1,2.12-2.23,2.77-3.68l5.16,2.91Z"/>
    <path class="cls-1" d="M915.65,887.66h5.85l15.25,39.25h-6.53l-4.13-10.66h-15.14l-4.1,10.66h-6.59l15.39-39.25ZM914.91,880.32c-.57,0-1.06.12-1.46.36-.4.24-.67.54-.84.89-.16.36-.27.64-.33.87-.05.23-.08.4-.08.53h-3.43c0-.27.05-.64.16-1.11.11-.47.31-1.01.61-1.63.3-.62.65-1.2,1.08-1.73.43-.53.99-.98,1.71-1.35.71-.37,1.49-.55,2.36-.55.92,0,1.79.2,2.62.61.83.41,1.62.81,2.37,1.22.76.4,1.5.61,2.24.61.5,0,.95-.09,1.34-.27.38-.18.68-.38.88-.62.21-.24.37-.5.5-.77.13-.28.2-.5.23-.66.03-.16.04-.29.04-.38h3.48c0,.23-.06.58-.17,1.03-.12.45-.34.99-.65,1.62-.31.63-.7,1.22-1.15,1.76-.45.54-1.06,1-1.82,1.39-.77.39-1.61.58-2.53.58s-1.86-.2-2.73-.59c-.86-.4-1.66-.79-2.39-1.19-.73-.4-1.42-.59-2.06-.59M924.87,911.65l-6.31-17.19-6.51,17.19h12.82Z"/>
    <path class="cls-1" d="M948.69,907.28c0-2.59.48-5.1,1.45-7.51.96-2.42,2.27-4.54,3.93-6.36,1.65-1.82,3.66-3.27,6.02-4.37,2.36-1.1,4.86-1.65,7.5-1.65s5.26.57,7.64,1.73c2.37,1.15,4.36,2.67,5.95,4.55,1.59,1.88,2.85,4.01,3.77,6.4.91,2.39,1.37,4.81,1.37,7.27,0,2.59-.48,5.09-1.44,7.5-.97,2.41-2.26,4.53-3.9,6.35-1.64,1.82-3.64,3.27-5.99,4.36s-4.86,1.63-7.5,1.63c-2.2,0-4.28-.37-6.26-1.09-1.98-.73-3.72-1.73-5.23-3.01-1.5-1.28-2.81-2.75-3.91-4.43-1.11-1.67-1.95-3.48-2.52-5.44-.58-1.95-.87-3.93-.87-5.92M967.53,921.59c1.91,0,3.66-.41,5.26-1.24,1.6-.83,2.91-1.92,3.94-3.28,1.02-1.36,1.82-2.88,2.39-4.57.57-1.69.85-3.43.85-5.21s-.31-3.64-.91-5.36c-.6-1.72-1.43-3.24-2.48-4.56-1.05-1.32-2.36-2.37-3.94-3.15-1.57-.78-3.28-1.18-5.11-1.18s-3.67.41-5.27,1.23c-1.61.82-2.94,1.9-3.98,3.25-1.04,1.35-1.85,2.87-2.43,4.56-.58,1.69-.87,3.42-.87,5.21,0,2.49.5,4.8,1.5,6.96.99,2.16,2.47,3.92,4.41,5.29,1.94,1.37,4.15,2.05,6.64,2.05"/>
  </g>
  <polygon class="cls-3" points="304.66 722.67 201.38 722.67 201.38 826.9 372.45 826.9 304.66 722.67"/>
  <path class="cls-2" d="M84.08,826.9h38.51c43.51,0,78.8-35.28,78.8-78.8s-35.28-78.8-78.8-78.8H1.66v157.59h82.42Z"/>
  <path class="cls-5" d="M1.66,669.31h112.08c29.16,0,52.8-23.64,52.8-52.8s-23.64-52.8-52.8-52.8H1.66v105.6Z"/>
  <polygon class="cls-4" points="479.15 563.71 322.62 826.9 635.68 826.9 479.15 563.71"/>
  <rect class="cls-4" x="896.33" y="563.71" width="91" height="174.79"/>
  <rect class="cls-5" x="987.34" y="738.5" width="91" height="88.4"/>
  <rect class="cls-1" x="896.33" y="738.5" width="91" height="88.4"/>
  <rect class="cls-2" x="590.13" y="680.68" width="86.03" height="146.22"/>
  <polygon class="cls-1" points="322.62 826.9 372.45 826.9 346.43 786.87 322.62 826.9"/>
  <polygon class="cls-1" points="590.13 750.31 590.13 826.9 635.69 826.9 590.13 750.31"/>
  <rect class="cls-3" x="789.98" y="563.71" width="91" height="263.19"/>
  <rect class="cls-3" x="1.66" y="563.71" width="91" height="105.6"/>
  <path class="cls-5" d="M277.12,722.67h27.54c43.9,0,79.48-35.58,79.48-79.48s-35.58-79.48-79.48-79.48h-103.28v158.96h75.74Z"/>
  <rect class="cls-5" x="676.17" y="563.71" width="98.46" height="95.71"/>
  <path class="cls-4" d="M706.23,659.42h-30.06v167.49h30.06c46.25,0,83.74-37.49,83.74-83.74s-37.49-83.74-83.74-83.74"/>
  <path class="cls-3" d="M648.62,563.71c-32.3,0-58.49,26.18-58.49,58.49s26.18,58.48,58.49,58.48h27.55v-116.97h-27.55Z"/>
  <rect class="cls-4" x="1.66" y="669.31" width="91" height="157.59"/>
  <polygon class="cls-4" points="304.66 722.67 201.38 563.71 201.38 722.67 304.66 722.67"/>
  <path class="cls-5" d="M575.17,826.9c0-53.03-42.99-96.02-96.02-96.02s-96.02,42.99-96.02,96.02h192.03Z"/>
  <g>
    <path class="cls-1" d="M144.32,481.11v3.89c0,15.58-10.44,25.72-24.25,25.72-14.7,0-26.24-11.46-26.24-26.09s11.61-26.23,26.16-26.23c9.19,0,17.64,4.7,22.27,12.42l-11.46,6.83c-2.2-3.97-6.25-6.25-10.95-6.25-7.35,0-12.57,5.66-12.57,13.3s5.21,12.93,12.78,12.93c5.29,0,8.67-2.64,9.85-5.88h-13.45v-10.65h27.85Z"/>
    <path class="cls-1" d="M162.84,484.57c0-14.55,11.61-26.16,26.24-26.16s26.09,11.61,26.09,26.16-11.61,26.16-26.09,26.16-26.24-11.61-26.24-26.16M200.68,484.57c0-7.06-5.07-12.34-11.61-12.34s-11.83,5.29-11.83,12.34,5.14,12.35,11.83,12.35,11.61-5.29,11.61-12.35"/>
    <polygon class="cls-1" points="280.2 459.58 260.65 509.55 247.2 509.55 227.87 459.58 242.35 459.58 253.96 490.37 265.72 459.58 280.2 459.58"/>
    <polygon class="cls-1" points="311.28 471.78 311.28 479.21 325.97 479.21 325.97 489.93 311.28 489.93 311.28 497.36 333.54 497.36 333.54 509.55 297.76 509.55 297.76 459.58 333.54 459.58 333.54 471.78 311.28 471.78"/>
    <path class="cls-1" d="M373.3,492.28h-5.66v17.27h-13.3v-49.98h24.18c9.77,0,17.27,6.98,17.27,16.24,0,6.39-3.45,11.69-8.75,14.48l11.1,19.26h-14.92l-9.92-17.27ZM367.64,480.89h9.4c3.16,0,5.15-2.2,5.15-4.63s-1.91-4.7-5.15-4.7h-9.4v9.33Z"/>
    <polygon class="cls-1" points="461.48 459.58 461.48 509.55 450.09 509.55 429.95 483.24 429.95 509.55 416.65 509.55 416.65 459.58 427.97 459.58 448.18 485.96 448.18 459.58 461.48 459.58"/>
    <path class="cls-1" d="M480.88,484.57c0-14.55,11.61-26.16,26.24-26.16s26.09,11.61,26.09,26.16-11.61,26.16-26.09,26.16-26.24-11.61-26.24-26.16M518.72,484.57c0-7.06-5.07-12.34-11.61-12.34s-11.83,5.29-11.83,12.34,5.14,12.35,11.83,12.35,11.61-5.29,11.61-12.35"/>
    <polygon class="cls-1" points="599.19 471.56 599.19 480.01 613.89 480.01 613.89 491.33 599.19 491.33 599.19 509.55 585.67 509.55 585.67 459.58 621.46 459.58 621.46 471.56 599.19 471.56"/>
    <polygon class="cls-1" points="655.19 471.78 655.19 479.21 669.88 479.21 669.88 489.93 655.19 489.93 655.19 497.36 677.45 497.36 677.45 509.55 641.66 509.55 641.66 459.58 677.45 459.58 677.45 471.78 655.19 471.78"/>
    <path class="cls-1" d="M745.28,484.57c0,14.33-11.46,24.99-26.68,24.99h-20.36v-49.97h20.36c15.21,0,26.68,10.65,26.68,24.99M731.32,484.57c0-7.27-5.44-11.98-13.38-11.98h-6.1v23.96h6.1c7.94,0,13.38-4.7,13.38-11.98"/>
    <polygon class="cls-1" points="778.2 471.78 778.2 479.21 792.9 479.21 792.9 489.93 778.2 489.93 778.2 497.36 800.47 497.36 800.47 509.55 764.68 509.55 764.68 459.58 800.47 459.58 800.47 471.78 778.2 471.78"/>
    <path class="cls-1" d="M840.22,492.28h-5.66v17.27h-13.3v-49.98h24.18c9.77,0,17.27,6.98,17.27,16.24,0,6.39-3.45,11.69-8.75,14.48l11.1,19.26h-14.92l-9.92-17.27ZM834.56,480.89h9.4c3.16,0,5.15-2.2,5.15-4.63s-1.91-4.7-5.15-4.7h-9.4v9.33Z"/>
    <path class="cls-1" d="M917.08,500.96h-19.77l-3.45,8.6h-14.04l20.87-49.98h12.79l21.09,49.98h-13.96l-3.53-8.6ZM912.16,489.05l-5-12.27-5,12.27h9.99Z"/>
    <polygon class="cls-1" points="987.34 496.69 987.34 509.56 952.13 509.56 952.13 459.58 966.32 459.58 966.32 496.69 987.34 496.69"/>
    <path class="cls-1" d="M144.32,481.11v3.89c0,15.58-10.44,25.72-24.25,25.72-14.7,0-26.24-11.46-26.24-26.09s11.61-26.23,26.16-26.23c9.19,0,17.64,4.7,22.27,12.42l-11.46,6.83c-2.2-3.97-6.25-6.25-10.95-6.25-7.35,0-12.57,5.66-12.57,13.3s5.21,12.93,12.78,12.93c5.29,0,8.67-2.64,9.85-5.88h-13.45v-10.65h27.85Z"/>
    <path class="cls-1" d="M162.84,484.57c0-14.55,11.61-26.16,26.24-26.16s26.09,11.61,26.09,26.16-11.61,26.16-26.09,26.16-26.24-11.61-26.24-26.16M200.68,484.57c0-7.06-5.07-12.34-11.61-12.34s-11.83,5.29-11.83,12.34,5.14,12.35,11.83,12.35,11.61-5.29,11.61-12.35"/>
    <polygon class="cls-1" points="280.2 459.58 260.65 509.55 247.2 509.55 227.87 459.58 242.35 459.58 253.96 490.37 265.72 459.58 280.2 459.58"/>
    <polygon class="cls-1" points="311.28 471.78 311.28 479.21 325.97 479.21 325.97 489.93 311.28 489.93 311.28 497.36 333.54 497.36 333.54 509.55 297.76 509.55 297.76 459.58 333.54 459.58 333.54 471.78 311.28 471.78"/>
    <path class="cls-1" d="M373.3,492.28h-5.66v17.27h-13.3v-49.98h24.18c9.77,0,17.27,6.98,17.27,16.24,0,6.39-3.45,11.69-8.75,14.48l11.1,19.26h-14.92l-9.92-17.27ZM367.64,480.89h9.4c3.16,0,5.15-2.2,5.15-4.63s-1.91-4.7-5.15-4.7h-9.4v9.33Z"/>
    <polygon class="cls-1" points="461.48 459.58 461.48 509.55 450.09 509.55 429.95 483.24 429.95 509.55 416.65 509.55 416.65 459.58 427.97 459.58 448.18 485.96 448.18 459.58 461.48 459.58"/>
    <path class="cls-1" d="M480.88,484.57c0-14.55,11.61-26.16,26.24-26.16s26.09,11.61,26.09,26.16-11.61,26.16-26.09,26.16-26.24-11.61-26.24-26.16M518.72,484.57c0-7.06-5.07-12.34-11.61-12.34s-11.83,5.29-11.83,12.34,5.14,12.35,11.83,12.35,11.61-5.29,11.61-12.35"/>
    <polygon class="cls-1" points="599.19 471.56 599.19 480.01 613.89 480.01 613.89 491.33 599.19 491.33 599.19 509.55 585.67 509.55 585.67 459.58 621.46 459.58 621.46 471.56 599.19 471.56"/>
    <polygon class="cls-1" points="655.19 471.78 655.19 479.21 669.88 479.21 669.88 489.93 655.19 489.93 655.19 497.36 677.45 497.36 677.45 509.55 641.66 509.55 641.66 459.58 677.45 459.58 677.45 471.78 655.19 471.78"/>
    <path class="cls-1" d="M745.28,484.57c0,14.33-11.46,24.99-26.68,24.99h-20.36v-49.97h20.36c15.21,0,26.68,10.65,26.68,24.99M731.32,484.57c0-7.27-5.44-11.98-13.38-11.98h-6.1v23.96h6.1c7.94,0,13.38-4.7,13.38-11.98"/>
    <polygon class="cls-1" points="778.2 471.78 778.2 479.21 792.9 479.21 792.9 489.93 778.2 489.93 778.2 497.36 800.47 497.36 800.47 509.55 764.68 509.55 764.68 459.58 800.47 459.58 800.47 471.78 778.2 471.78"/>
    <path class="cls-1" d="M840.22,492.28h-5.66v17.27h-13.3v-49.98h24.18c9.77,0,17.27,6.98,17.27,16.24,0,6.39-3.45,11.69-8.75,14.48l11.1,19.26h-14.92l-9.92-17.27ZM834.56,480.89h9.4c3.16,0,5.15-2.2,5.15-4.63s-1.91-4.7-5.15-4.7h-9.4v9.33Z"/>
    <path class="cls-1" d="M917.08,500.96h-19.77l-3.45,8.6h-14.04l20.87-49.98h12.79l21.09,49.98h-13.96l-3.53-8.6ZM912.16,489.05l-5-12.27-5,12.27h9.99Z"/>
    <polygon class="cls-1" points="987.34 496.69 987.34 509.56 952.13 509.56 952.13 459.58 966.32 459.58 966.32 496.69 987.34 496.69"/>
  </g>
  <g>
    <g>
      <path class="cls-1" d="M309.37,174.98v-52.96h22.84c2.5,0,4.88.53,7.14,1.6,2.26,1.07,4.15,2.47,5.68,4.19,1.53,1.72,2.74,3.69,3.64,5.88.9,2.2,1.35,4.43,1.35,6.68s-.42,4.64-1.27,6.85c-.85,2.21-2.02,4.16-3.51,5.86-1.49,1.7-3.35,3.07-5.56,4.1-2.21,1.03-4.58,1.55-7.1,1.55h-8.67v16.25h-14.53ZM323.9,146.03h7.69c1.02,0,1.89-.45,2.6-1.35.72-.9,1.07-2.33,1.07-4.3s-.41-3.44-1.22-4.33c-.81-.9-1.75-1.35-2.82-1.35h-7.32v11.33Z"/>
      <path class="cls-1" d="M367.82,148.43c0-3.47.68-6.83,2.04-10.07,1.36-3.24,3.22-6.09,5.57-8.54,2.35-2.45,5.23-4.41,8.61-5.88,3.39-1.47,7-2.2,10.84-2.2s7.53.77,10.93,2.31c3.4,1.54,6.23,3.58,8.51,6.12,2.27,2.54,4.06,5.42,5.35,8.65,1.3,3.23,1.95,6.53,1.95,9.91s-.67,6.79-2.02,10.02c-1.35,3.23-3.19,6.08-5.54,8.54-2.34,2.47-5.21,4.44-8.61,5.92-3.4,1.48-7.02,2.22-10.85,2.22s-7.52-.76-10.91-2.29c-3.39-1.53-6.22-3.56-8.51-6.08-2.28-2.52-4.08-5.41-5.39-8.65-1.31-3.24-1.97-6.56-1.97-9.96ZM394.74,162.53c2.02,0,3.82-.41,5.41-1.22,1.59-.81,2.86-1.9,3.81-3.26.95-1.36,1.66-2.85,2.15-4.48.49-1.63.73-3.34.73-5.14,0-2.48-.43-4.74-1.29-6.77-.86-2.04-2.23-3.72-4.12-5.04-1.88-1.32-4.13-1.99-6.76-1.99-2.02,0-3.81.4-5.39,1.2-1.58.8-2.84,1.87-3.79,3.21-.95,1.34-1.66,2.82-2.15,4.44-.49,1.63-.73,3.33-.73,5.1s.25,3.55.75,5.19,1.23,3.12,2.2,4.44c.97,1.32,2.25,2.37,3.82,3.15,1.58.78,3.36,1.17,5.35,1.17Z"/>
    </g>
    <path class="cls-1" d="M442.76,174.98v-52.96h24.33c2.5,0,4.88.53,7.14,1.6,2.26,1.07,4.15,2.47,5.68,4.19,1.53,1.72,2.74,3.69,3.64,5.88.9,2.2,1.35,4.43,1.35,6.68,0,3.06-.67,5.93-2.02,8.6-1.35,2.67-3.21,4.84-5.59,6.52l11.18,19.49h-15.95l-9.32-16.25h-5.9v16.25h-14.53ZM457.29,146.03h9.18c.95,0,1.8-.52,2.55-1.55.75-1.03,1.13-2.4,1.13-4.1s-.42-3.07-1.27-4.12c-.85-1.04-1.77-1.57-2.77-1.57h-8.81v11.33Z"/>
    <path class="cls-1" d="M548.44,134.7h-15.19v40.29h-14.57v-40.29h-15.3v-12.68h45.06v12.68Z"/>
    <path class="cls-1" d="M564.87,148.43c0-3.47.68-6.83,2.04-10.07,1.36-3.24,3.22-6.09,5.57-8.54,2.36-2.45,5.23-4.41,8.61-5.88,3.39-1.47,7-2.2,10.84-2.2s7.53.77,10.93,2.31c3.4,1.54,6.23,3.58,8.5,6.12,2.27,2.54,4.06,5.42,5.35,8.65,1.3,3.23,1.95,6.53,1.95,9.91s-.67,6.79-2.02,10.02c-1.35,3.23-3.19,6.08-5.54,8.54-2.34,2.47-5.21,4.44-8.61,5.92-3.4,1.48-7.02,2.22-10.85,2.22s-7.52-.76-10.91-2.29c-3.39-1.53-6.22-3.56-8.5-6.08-2.28-2.52-4.08-5.41-5.39-8.65-1.31-3.24-1.97-6.56-1.97-9.96ZM591.78,162.53c2.02,0,3.82-.41,5.41-1.22,1.59-.81,2.86-1.9,3.81-3.26.95-1.36,1.66-2.85,2.15-4.48s.73-3.34.73-5.14c0-2.48-.43-4.74-1.29-6.77-.86-2.04-2.23-3.72-4.12-5.04-1.88-1.32-4.13-1.99-6.76-1.99-2.02,0-3.81.4-5.39,1.2-1.58.8-2.84,1.87-3.79,3.21s-1.66,2.82-2.15,4.44c-.49,1.63-.73,3.33-.73,5.1s.25,3.55.75,5.19c.5,1.64,1.23,3.12,2.2,4.44.97,1.32,2.25,2.37,3.83,3.15,1.58.78,3.36,1.17,5.35,1.17Z"/>
    <path class="cls-1" d="M671.41,139.32c-.22-.12-.51-.29-.87-.51-.36-.22-1.11-.61-2.22-1.17-1.12-.56-2.21-1.05-3.28-1.48-1.07-.42-2.31-.81-3.73-1.17-1.42-.35-2.73-.53-3.92-.53-2.84,0-4.26.87-4.26,2.62,0,.39.07.74.2,1.06.13.32.37.61.71.87.34.27.67.5,1,.69.33.19.83.41,1.51.66.68.24,1.26.44,1.75.58.49.15,1.23.37,2.22.67,1,.3,1.81.55,2.44.75,2.14.66,3.95,1.3,5.45,1.93s2.94,1.4,4.35,2.31,2.54,1.91,3.39,3,1.52,2.41,2.02,3.95c.5,1.54.75,3.28.75,5.23,0,2.45-.39,4.66-1.17,6.63s-1.8,3.58-3.08,4.83c-1.28,1.25-2.8,2.29-4.57,3.11-1.77.83-3.59,1.41-5.45,1.75-1.86.34-3.82.51-5.88.51-3.81,0-7.81-.56-11.98-1.69-4.18-1.13-7.86-2.63-11.04-4.5l6.27-12.75c.24.17.58.38,1,.64s1.3.72,2.62,1.38c1.32.67,2.63,1.26,3.92,1.77,1.29.51,2.81.98,4.57,1.4,1.76.42,3.39.64,4.9.64,2.82,0,4.23-.78,4.23-2.33,0-.58-.18-1.1-.55-1.55-.36-.45-.97-.86-1.82-1.24-.85-.38-1.67-.69-2.46-.95-.79-.25-1.91-.59-3.35-1.02-1.44-.42-2.64-.8-3.59-1.11-4.76-1.6-8.19-3.53-10.29-5.77-2.1-2.25-3.15-5.28-3.15-9.09,0-2.84.54-5.42,1.62-7.72,1.08-2.31,2.54-4.19,4.37-5.65,1.83-1.46,3.93-2.57,6.28-3.35,2.36-.78,4.86-1.17,7.5-1.17,5.66,0,12.28,1.91,19.85,5.72l-6.27,12.02Z"/>
    <path class="cls-1" d="M769.64,162.31v12.68h-37.74v-52.96h37.08v12.68h-22.55v7.47h19.27v11.77h-19.27v8.38h23.2Z"/>
    <g>
      <path class="cls-1" d="M237.39,226.76h16.25l16.87,52.96h-14.75l-3.21-10.38h-14.13l-3.13,10.38h-14.82l16.94-52.96ZM250.21,259.65l-4.7-18.65-4.92,18.65h9.62Z"/>
      <path class="cls-1" d="M327.56,267.04v12.68h-37.74v-52.96h37.08v12.68h-22.55v7.47h19.27v11.77h-19.27v8.38h23.2Z"/>
    </g>
    <path class="cls-1" d="M349.28,279.72v-52.96h24.33c2.5,0,4.88.53,7.14,1.6,2.26,1.07,4.15,2.47,5.68,4.19,1.53,1.72,2.74,3.69,3.64,5.88.9,2.2,1.35,4.43,1.35,6.68,0,3.06-.67,5.93-2.02,8.6-1.35,2.67-3.21,4.84-5.59,6.52l11.18,19.49h-15.95l-9.32-16.25h-5.9v16.25h-14.53ZM363.82,250.76h9.18c.95,0,1.8-.52,2.55-1.55.75-1.03,1.13-2.4,1.13-4.1s-.42-3.07-1.27-4.12c-.85-1.04-1.77-1.57-2.77-1.57h-8.81v11.33Z"/>
    <g>
      <path class="cls-1" d="M410.89,253.17c0-3.47.68-6.83,2.04-10.07,1.36-3.24,3.22-6.09,5.57-8.54,2.35-2.45,5.23-4.41,8.61-5.88,3.39-1.47,7-2.2,10.84-2.2s7.53.77,10.93,2.31c3.4,1.54,6.23,3.58,8.51,6.12,2.27,2.54,4.06,5.42,5.35,8.65,1.3,3.23,1.95,6.53,1.95,9.91s-.67,6.79-2.02,10.02c-1.35,3.23-3.19,6.08-5.54,8.54-2.34,2.47-5.21,4.44-8.61,5.92-3.4,1.48-7.02,2.22-10.85,2.22s-7.52-.76-10.91-2.29c-3.39-1.53-6.22-3.56-8.51-6.08-2.28-2.52-4.08-5.41-5.39-8.65-1.31-3.24-1.97-6.56-1.97-9.96ZM437.81,267.26c2.02,0,3.82-.41,5.41-1.22,1.59-.81,2.86-1.9,3.81-3.26.95-1.36,1.66-2.85,2.15-4.48.49-1.63.73-3.34.73-5.14,0-2.48-.43-4.74-1.29-6.77-.86-2.04-2.23-3.72-4.12-5.04-1.88-1.32-4.13-1.99-6.76-1.99-2.02,0-3.81.4-5.39,1.2-1.58.8-2.84,1.87-3.79,3.21-.95,1.34-1.66,2.82-2.15,4.44-.49,1.63-.73,3.33-.73,5.1s.25,3.55.75,5.19,1.23,3.12,2.2,4.44c.97,1.32,2.25,2.37,3.82,3.15,1.58.78,3.36,1.17,5.35,1.17Z"/>
      <path class="cls-1" d="M485.77,279.72v-52.96h22.84c2.5,0,4.88.53,7.14,1.6,2.26,1.07,4.15,2.47,5.68,4.19,1.53,1.72,2.74,3.69,3.64,5.88.9,2.2,1.35,4.43,1.35,6.68s-.42,4.64-1.27,6.85c-.85,2.21-2.02,4.16-3.51,5.86-1.49,1.7-3.35,3.07-5.56,4.1-2.21,1.03-4.58,1.55-7.1,1.55h-8.67v16.25h-14.53ZM500.3,250.76h7.69c1.02,0,1.89-.45,2.6-1.35.72-.9,1.07-2.33,1.07-4.3s-.41-3.44-1.22-4.33c-.81-.9-1.75-1.35-2.82-1.35h-7.32v11.33Z"/>
      <path class="cls-1" d="M544.14,253.17c0-3.47.68-6.83,2.04-10.07,1.36-3.24,3.22-6.09,5.57-8.54,2.36-2.45,5.23-4.41,8.61-5.88,3.39-1.47,7-2.2,10.84-2.2s7.53.77,10.93,2.31c3.4,1.54,6.23,3.58,8.5,6.12,2.27,2.54,4.06,5.42,5.35,8.65,1.3,3.23,1.95,6.53,1.95,9.91s-.67,6.79-2.02,10.02c-1.35,3.23-3.19,6.08-5.54,8.54-2.34,2.47-5.21,4.44-8.61,5.92-3.4,1.48-7.02,2.22-10.85,2.22s-7.52-.76-10.91-2.29c-3.39-1.53-6.22-3.56-8.5-6.08-2.28-2.52-4.08-5.41-5.39-8.65-1.31-3.24-1.97-6.56-1.97-9.96ZM571.06,267.26c2.02,0,3.82-.41,5.41-1.22,1.59-.81,2.86-1.9,3.81-3.26.95-1.36,1.66-2.85,2.15-4.48s.73-3.34.73-5.14c0-2.48-.43-4.74-1.29-6.77-.86-2.04-2.23-3.72-4.12-5.04-1.88-1.32-4.13-1.99-6.76-1.99-2.02,0-3.81.4-5.39,1.2-1.58.8-2.84,1.87-3.79,3.21s-1.66,2.82-2.15,4.44c-.49,1.63-.73,3.33-.73,5.1s.25,3.55.75,5.19c.5,1.64,1.23,3.12,2.2,4.44.97,1.32,2.25,2.37,3.83,3.15,1.58.78,3.36,1.17,5.35,1.17Z"/>
    </g>
    <path class="cls-1" d="M619.14,279.72v-52.96h24.33c2.5,0,4.88.53,7.14,1.6,2.26,1.07,4.15,2.47,5.68,4.19,1.53,1.72,2.74,3.69,3.64,5.88.9,2.2,1.35,4.43,1.35,6.68,0,3.06-.67,5.93-2.02,8.6-1.35,2.67-3.21,4.84-5.59,6.52l11.18,19.49h-15.95l-9.33-16.25h-5.9v16.25h-14.53ZM633.68,250.76h9.18c.95,0,1.8-.52,2.55-1.55.75-1.03,1.13-2.4,1.13-4.1s-.43-3.07-1.28-4.12c-.85-1.04-1.77-1.57-2.77-1.57h-8.81v11.33Z"/>
    <path class="cls-1" d="M724.86,239.43h-15.19v40.29h-14.57v-40.29h-15.3v-12.68h45.06v12.68Z"/>
    <path class="cls-1" d="M741.29,253.17c0-3.47.68-6.83,2.04-10.07,1.36-3.24,3.22-6.09,5.57-8.54,2.36-2.45,5.23-4.41,8.61-5.88,3.39-1.47,7-2.2,10.84-2.2s7.53.77,10.93,2.31c3.4,1.54,6.23,3.58,8.5,6.12,2.27,2.54,4.06,5.42,5.35,8.65,1.3,3.23,1.95,6.53,1.95,9.91s-.67,6.79-2.02,10.02c-1.35,3.23-3.19,6.08-5.54,8.54-2.34,2.47-5.21,4.44-8.61,5.92-3.4,1.48-7.02,2.22-10.85,2.22s-7.52-.76-10.91-2.29c-3.39-1.53-6.22-3.56-8.5-6.08-2.28-2.52-4.08-5.41-5.39-8.65-1.31-3.24-1.97-6.56-1.97-9.96ZM768.21,267.26c2.02,0,3.82-.41,5.41-1.22,1.59-.81,2.86-1.9,3.81-3.26.95-1.36,1.66-2.85,2.15-4.48s.73-3.34.73-5.14c0-2.48-.43-4.74-1.29-6.77-.86-2.04-2.23-3.72-4.12-5.04-1.88-1.32-4.13-1.99-6.76-1.99-2.02,0-3.81.4-5.39,1.2-1.58.8-2.84,1.87-3.79,3.21s-1.66,2.82-2.15,4.44c-.49,1.63-.73,3.33-.73,5.1s.25,3.55.75,5.19c.5,1.64,1.23,3.12,2.2,4.44.97,1.32,2.25,2.37,3.83,3.15,1.58.78,3.36,1.17,5.35,1.17Z"/>
    <path class="cls-1" d="M847.84,244.06c-.22-.12-.51-.29-.87-.51-.36-.22-1.11-.61-2.22-1.17-1.12-.56-2.21-1.05-3.28-1.48-1.07-.42-2.31-.81-3.73-1.17-1.42-.35-2.73-.53-3.92-.53-2.84,0-4.26.87-4.26,2.62,0,.39.07.74.2,1.06.13.32.37.61.71.87.34.27.67.5,1,.69.33.19.83.41,1.51.66.68.24,1.26.44,1.75.58.49.15,1.23.37,2.22.67,1,.3,1.81.55,2.44.75,2.14.66,3.95,1.3,5.45,1.93s2.94,1.4,4.35,2.31,2.54,1.91,3.39,3,1.52,2.41,2.02,3.95c.5,1.54.75,3.28.75,5.23,0,2.45-.39,4.66-1.17,6.63s-1.8,3.58-3.08,4.83c-1.28,1.25-2.8,2.29-4.57,3.11-1.77.83-3.59,1.41-5.45,1.75-1.86.34-3.82.51-5.88.51-3.81,0-7.81-.56-11.98-1.69-4.18-1.13-7.86-2.63-11.04-4.5l6.27-12.75c.24.17.58.38,1,.64s1.3.72,2.62,1.38c1.32.67,2.63,1.26,3.92,1.77,1.29.51,2.81.98,4.57,1.4,1.76.42,3.39.64,4.9.64,2.82,0,4.23-.78,4.23-2.33,0-.58-.18-1.1-.55-1.55-.36-.45-.97-.86-1.82-1.24-.85-.38-1.67-.69-2.46-.95-.79-.25-1.91-.59-3.35-1.02-1.44-.42-2.64-.8-3.59-1.11-4.76-1.6-8.19-3.53-10.29-5.77-2.1-2.25-3.15-5.28-3.15-9.09,0-2.84.54-5.42,1.62-7.72,1.08-2.31,2.54-4.19,4.37-5.65,1.83-1.46,3.93-2.57,6.28-3.35,2.36-.78,4.86-1.17,7.5-1.17,5.66,0,12.28,1.91,19.85,5.72l-6.27,12.02Z"/>
    <g>
      <path class="cls-1" d="M228.71,69.72V31.99l-15.59,28.63h-4.92l-15.66-28.63v37.74h-8.34V16.76h8.96l17.52,32.38,17.52-32.38h8.96v52.96h-8.45Z"/>
      <path class="cls-1" d="M263.99,69.72V16.76h8.34v52.96h-8.34Z"/>
      <path class="cls-1" d="M307.54,32.28v37.45h-8.34V16.76h6.85l30.01,38.28V16.83h8.41v52.89h-7.32l-29.61-37.45Z"/>
      <path class="cls-1" d="M371.3,69.72V16.76h8.34v52.96h-8.34Z"/>
      <path class="cls-1" d="M437.84,29.22c-1.14-1.26-3.08-2.48-5.83-3.64-2.74-1.17-5.57-1.75-8.49-1.75-3.45,0-6.03.64-7.74,1.91s-2.57,3.08-2.57,5.41c0,.73.1,1.38.29,1.97s.44,1.1.75,1.55c.3.45.76.88,1.37,1.29.61.41,1.21.76,1.8,1.06.59.29,1.41.6,2.44.93,1.03.33,2,.61,2.9.84.9.23,2.08.53,3.53.89,2.33.56,4.32,1.11,5.97,1.66,1.65.55,3.24,1.24,4.77,2.08s2.76,1.77,3.68,2.8c.92,1.03,1.66,2.29,2.2,3.77.55,1.48.82,3.17.82,5.06,0,2.11-.33,4.02-1,5.72-.67,1.7-1.58,3.13-2.75,4.3s-2.57,2.14-4.23,2.93-3.42,1.36-5.32,1.71c-1.89.35-3.93.53-6.12.53-4.03,0-7.93-.61-11.69-1.84-3.76-1.23-7.15-2.99-10.16-5.3l3.82-7.18c1.53,1.58,4.02,3.1,7.49,4.57,3.46,1.47,7.02,2.2,10.69,2.2,3.3,0,5.85-.58,7.63-1.75,1.78-1.17,2.68-2.84,2.68-5.03,0-.87-.13-1.66-.4-2.37-.27-.7-.73-1.34-1.38-1.91-.66-.57-1.33-1.06-2.02-1.48-.69-.41-1.68-.84-2.95-1.27-1.27-.44-2.44-.8-3.5-1.09-1.06-.29-2.48-.67-4.28-1.13-2.79-.73-5.1-1.47-6.92-2.22-1.82-.75-3.43-1.68-4.83-2.77-1.4-1.09-2.41-2.39-3.04-3.88-.63-1.49-.95-3.26-.95-5.3,0-2.55.49-4.85,1.48-6.9.98-2.05,2.34-3.75,4.06-5.08s3.75-2.36,6.08-3.06c2.33-.7,4.87-1.06,7.61-1.06,6.51,0,12.47,1.99,17.88,5.97l-3.79,6.85Z"/>
      <path class="cls-1" d="M505.87,24.16h-17.59v45.57h-8.45V24.16h-17.67v-7.39h43.71v7.39Z"/>
    </g>
    <path class="cls-1" d="M564.26,62.33v7.39h-36.32V16.76h35.66v7.39h-27.32v15.04h23.64v6.96h-23.64v16.17h27.97ZM549.44,11.3l-5.39-1.64,4.26-8.2h7.83l-6.7,9.83Z"/>
    <g>
      <path class="cls-1" d="M587.63,69.72V16.76h23.06c2.31,0,4.5.5,6.57,1.49s3.82,2.31,5.23,3.93c1.41,1.63,2.53,3.47,3.35,5.54.83,2.06,1.24,4.15,1.24,6.27,0,3.59-.95,6.84-2.84,9.74-1.89,2.9-4.4,4.85-7.5,5.85l12.46,20.14h-9.4l-11.51-18.43h-12.31v18.43h-8.34ZM595.97,43.9h14.64c2.31,0,4.21-.97,5.72-2.9,1.51-1.93,2.26-4.27,2.26-7.01s-.85-5.01-2.55-6.94c-1.7-1.93-3.67-2.9-5.9-2.9h-14.17v19.74Z"/>
      <path class="cls-1" d="M651.83,69.72V16.76h8.34v52.96h-8.34Z"/>
      <path class="cls-1" d="M683.69,43.24c0-3.5.65-6.88,1.95-10.14s3.07-6.13,5.3-8.58,4.94-4.42,8.12-5.9c3.18-1.48,6.56-2.22,10.13-2.22s7.1.78,10.31,2.33c3.21,1.55,5.88,3.6,8.03,6.14,2.15,2.54,3.84,5.42,5.08,8.63,1.24,3.22,1.86,6.49,1.86,9.82,0,3.5-.65,6.87-1.95,10.13-1.3,3.25-3.05,6.11-5.26,8.56-2.21,2.45-4.91,4.41-8.09,5.88s-6.56,2.2-10.13,2.2c-2.96,0-5.78-.49-8.45-1.48-2.67-.98-5.02-2.34-7.05-4.06-2.03-1.72-3.79-3.72-5.28-5.97-1.49-2.26-2.63-4.7-3.41-7.34-.78-2.63-1.17-5.3-1.17-8ZM709.11,62.55c2.57,0,4.94-.56,7.1-1.68,2.16-1.12,3.93-2.59,5.32-4.43,1.38-1.83,2.46-3.89,3.22-6.17.76-2.28,1.15-4.63,1.15-7.03s-.41-4.91-1.22-7.23-1.93-4.37-3.35-6.16c-1.42-1.78-3.19-3.21-5.32-4.26-2.12-1.06-4.43-1.58-6.9-1.58s-4.95.55-7.12,1.66c-2.17,1.11-3.96,2.57-5.37,4.39-1.41,1.82-2.5,3.87-3.28,6.16-.78,2.28-1.17,4.63-1.17,7.03,0,3.35.67,6.48,2.02,9.4,1.35,2.91,3.33,5.29,5.96,7.14,2.62,1.85,5.61,2.77,8.96,2.77Z"/>
      <path class="cls-1" d="M791.3,69.72V16.76h18.8c4.15,0,7.89.69,11.2,2.06,3.32,1.37,6.03,3.27,8.14,5.68,2.11,2.42,3.72,5.21,4.83,8.38,1.1,3.17,1.66,6.6,1.66,10.29,0,8.01-2.35,14.44-7.05,19.29-4.7,4.84-10.96,7.27-18.78,7.27h-18.8ZM810.09,24.16h-10.45v38.17h10.45c3.64,0,6.78-.84,9.42-2.53,2.63-1.69,4.61-3.96,5.92-6.83,1.31-2.86,1.97-6.13,1.97-9.8,0-5.66-1.54-10.24-4.61-13.75-3.07-3.51-7.3-5.26-12.69-5.26Z"/>
    </g>
    <path class="cls-1" d="M896.04,62.33v7.39h-36.32V16.76h35.66v7.39h-27.32v15.04h23.64v6.96h-23.64v16.17h27.97Z"/>
  </g>
</svg>